<svg width="152" height="152" viewBox="0 0 152 152" fill="none" xmlns="http://www.w3.org/2000/svg">
<rect width="152" height="152" fill="#58BCFF"/>
<path d="M65.038 28L43 49.7953V56.821L50.4598 81.1561L51.4353 80.8507L52.8146 85.0998L54.0854 86.5785L54.3469 84.5248L53.2644 80.1683L54.2046 79.8426L49.2594 56.7976L62.9123 44.5039L91.5349 59.4107L87.7197 86.6782H90.9564L95.6604 61.4736L97.8797 63.4042L90.9564 86.6782H96.4557L105.684 63.1081L65.038 28ZM45.7951 53.4398L45.6569 50.4856L64.5232 32.1416L66.3048 34.6003L45.7951 53.4383V53.4398ZM65.5271 42.148L69.4115 38.6499L86.5518 53.552L65.5285 42.1464L65.5271 42.148Z" fill="white"/>
<path d="M103.537 109.86H81.6409L76.2499 123.848H79.7455L84.0187 117.308H101.148L105.421 123.848H108.917L103.537 109.884V109.86Z" fill="white"/>
<path d="M99.8294 83.4156V90.901C99.8294 95.5037 96.5845 99.2355 92.5823 99.2355C88.58 99.2355 85.3351 95.5037 85.3351 90.901V83.4156L78.298 87.9062V101.54L85.1834 106.378H99.9825L106.868 101.54V87.9062L99.8307 83.4156H99.8294Z" fill="white"/>
</svg>
