<svg viewBox="0 0 74 72" fill="none" xmlns="http://www.w3.org/2000/svg"><path fill-rule="evenodd" clip-rule="evenodd" d="M73.43 32.46a35.35 35.35 0 0 1-8.1 26.33 37.04 37.04 0 0 1-24.79 13.03c-9.7.96-19.4-1.89-26.95-7.91a35.69 35.69 0 0 1-13.34-24.21c-.1-.9.17-1.78.75-2.48a3.5 3.5 0 0 1 4.85-.5 3.35 3.35 0 0 1 1.26 2.27c.53 4.9 2.33 9.6 5.22 13.65a29.7 29.7 0 0 0 11.34 9.48 30.49 30.49 0 0 0 28.87-1.37 29.5 29.5 0 0 0 10.33-10.52 28.66 28.66 0 0 0 .22-28.23 29.47 29.47 0 0 0-10.18-10.67v7.75c0 .9-.36 1.75-1 2.38a3.49 3.49 0 0 1-4.88 0 3.33 3.33 0 0 1-1.01-2.38v-19.08h19.54c.91 0 1.79.35 2.44.99a3.33 3.33 0 0 1 0 4.76 3.5 3.5 0 0 1-2.44.98h-7.3a36.23 36.23 0 0 1 10.44 11.27 35.34 35.34 0 0 1 4.73 14.46Zm-41.2-23.48c1.22 0 2.39-.47 3.25-1.32a4.44 4.44 0 0 0 0-6.34 4.65 4.65 0 0 0-6.5 0 4.44 4.44 0 0 0 0 6.34 4.65 4.65 0 0 0 3.25 1.32Zm-10.35 1.12c0 1.2-.48 2.34-1.34 3.18a4.65 4.65 0 0 1-6.5 0 4.44 4.44 0 0 1 0-6.35 4.65 4.65 0 0 1 6.5 0 4.44 4.44 0 0 1 1.34 3.17Zm-14.94 16.84a4.6 4.6 0 0 0 3.25-1.32 4.44 4.44 0 0 0 0-6.35 4.65 4.65 0 0 0-6.5 0 4.44 4.44 0 0 0 0 6.35 4.65 4.65 0 0 0 3.25 1.32Z" fill="#18A0FB"/><path d="M22.43 45v-2.52l6.48-6.12a6.8 6.8 0 0 0 1.13-1.25 3.55 3.55 0 0 0 .62-1.85c0-.67-.23-1.18-.7-1.53-.44-.37-1.1-.55-1.99-.55-.7 0-1.36.13-1.97.4-.59.28-1.1.7-1.5 1.28l-2.84-1.83a6.62 6.62 0 0 1 2.69-2.28 9 9 0 0 1 3.98-.84c1.25 0 2.34.21 3.27.63.94.4 1.67.96 2.18 1.7.53.74.8 1.62.8 2.64 0 .54-.08 1.09-.22 1.63-.13.53-.4 1.09-.82 1.68-.4.6-1 1.26-1.78 2l-5.37 5.06-.75-1.42h9.48v3.17h-12.7Zm13.85-3.53v-2.61l7.92-10.66h4.08l-7.75 10.66-1.9-.56h13.23v3.17h-15.58Zm9.05 3.53v-3.53l.12-3.17v-3.14h3.67v9.84h-3.8Z" fill="#18A0FB"/></svg>