<svg width="53" height="52" viewBox="0 0 53 52" fill="none" xmlns="http://www.w3.org/2000/svg">
<path d="M39.2359 21.2873H28.5484V25.1623C28.5484 27.9094 26.2773 30.1445 23.4859 30.1445C20.6945 30.1445 18.4235 27.9094 18.4235 25.1623V16.7479L13.8602 19.4466C12.5032 20.2424 11.6735 21.6886 11.6735 23.2386V26.5116L6.04848 29.7085C4.9727 30.3175 4.60004 31.6737 5.22582 32.7325L10.8508 42.3232C11.4696 43.3819 12.8477 43.7417 13.9235 43.1328L21.1938 39.0017H30.7984C33.2805 39.0017 35.2984 37.0158 35.2984 34.5731H36.4234C37.6679 34.5731 38.6734 33.5836 38.6734 32.3588V27.9302H39.2359C40.1711 27.9302 40.9234 27.1898 40.9234 26.2695V22.948C40.9234 22.0277 40.1711 21.2873 39.2359 21.2873ZM49.6211 18.6993L43.9961 9.10859C43.3773 8.04987 41.9992 7.69005 40.9234 8.29898L33.6531 12.43H26.4672C25.6234 12.43 24.8008 12.6653 24.0836 13.1013L21.7281 14.5475C21.0672 14.9488 20.6735 15.6615 20.6735 16.4227V25.1623C20.6735 26.6916 21.932 27.9302 23.4859 27.9302C25.0398 27.9302 26.2984 26.6916 26.2984 25.1623V19.073H39.2359C41.4086 19.073 43.1734 20.8098 43.1734 22.948V24.9201L48.7984 21.7232C49.8742 21.1074 50.2398 19.758 49.6211 18.6993Z" fill="white"/>
</svg>
