<svg viewBox="0 0 77 74" fill="none" xmlns="http://www.w3.org/2000/svg"><path d="M38.52 22.2a15.9 15.9 0 0 1 10.96 4.33 14.47 14.47 0 0 1 4.54 10.47c0 3.93-1.63 7.69-4.54 10.47a15.89 15.89 0 0 1-10.96 4.33c-4.11 0-8.06-1.56-10.97-4.33a14.47 14.47 0 0 1-4.54-10.47 14.5 14.5 0 0 1 4.54-10.47 15.89 15.89 0 0 1 10.97-4.33Zm0 7.4c-2.06 0-4.03.78-5.48 2.17a7.23 7.23 0 0 0-2.27 5.23c0 1.96.81 3.84 2.27 5.23a7.94 7.94 0 0 0 5.48 2.17c2.05 0 4.03-.78 5.48-2.17a7.23 7.23 0 0 0 2.27-5.23c0-1.96-.82-3.84-2.27-5.23a7.94 7.94 0 0 0-5.48-2.17Zm-7.75 44.4c-.97 0-1.79-.67-1.94-1.55l-1.44-9.8a27.24 27.24 0 0 1-6.55-3.67l-9.65 3.74c-.85.3-1.9 0-2.36-.82l-7.76-12.8a1.75 1.75 0 0 1 .47-2.37l8.18-6.14-.27-3.59.27-3.7-8.18-6.03a1.75 1.75 0 0 1-.47-2.37l7.76-12.8a1.95 1.95 0 0 1 2.36-.81l9.65 3.7a28.51 28.51 0 0 1 6.55-3.63l1.44-9.8c.15-.9.97-1.56 1.94-1.56h15.5c.97 0 1.78.67 1.94 1.55l1.43 9.8c2.45.93 4.54 2.2 6.55 3.63l9.66-3.7c.85-.33 1.9 0 2.36.82l7.75 12.8c.5.82.27 1.81-.46 2.37l-8.18 6.03.27 3.7-.27 3.7 8.18 6.03c.73.56.97 1.55.46 2.37l-7.75 12.8a1.95 1.95 0 0 1-2.36.82l-9.66-3.7a28.45 28.45 0 0 1-6.55 3.62l-1.43 9.8a1.94 1.94 0 0 1-1.94 1.56h-15.5Zm4.84-66.6-1.43 9.66a21.5 21.5 0 0 0-11.75 6.58l-9.34-3.84-2.9 4.8 8.17 5.74c-1.55 4.32-1.55 9 0 13.32l-8.22 5.77 2.91 4.81 9.42-3.85a21.33 21.33 0 0 0 11.67 6.52l1.43 9.69h5.9l1.43-9.66a21.6 21.6 0 0 0 11.67-6.55l9.42 3.85 2.9-4.8-8.22-5.74a19.76 19.76 0 0 0 0-13.36l8.18-5.73-2.9-4.81-9.35 3.84a21.24 21.24 0 0 0-11.74-6.55l-1.43-9.69h-5.82Z" fill="#18A0FB"/></svg>