<svg width="53" height="53" viewBox="0 0 53 53" fill="none" xmlns="http://www.w3.org/2000/svg">
<path d="M27.4219 3.51345C22.6701 3.51345 18.1129 5.36273 14.7529 8.65448C11.3929 11.9462 9.50521 16.4108 9.50521 21.066V24.5765H13.0885C14.0389 24.5765 14.9503 24.9464 15.6223 25.6048C16.2943 26.2631 16.6719 27.156 16.6719 28.0871V38.6186C16.6719 39.5497 16.2943 40.4426 15.6223 41.1009C14.9503 41.7593 14.0389 42.1291 13.0885 42.1291H9.50521C8.55485 42.1291 7.64341 41.7593 6.97141 41.1009C6.2994 40.4426 5.92188 39.5497 5.92188 38.6186V21.066C5.92187 18.3 6.47799 15.561 7.55846 13.0055C8.63894 10.45 10.2226 8.12806 12.2191 6.17217C14.2155 4.21628 16.5857 2.66478 19.1942 1.60626C21.8027 0.547743 24.5985 0.00292969 27.4219 0.00292969C30.2453 0.00292969 33.0411 0.547743 35.6496 1.60626C38.2581 2.66478 40.6282 4.21628 42.6247 6.17217C44.6211 8.12806 46.2048 10.45 47.2853 13.0055C48.3658 15.561 48.9219 18.3 48.9219 21.066V42.1291C48.9219 44.4567 47.9781 46.689 46.298 48.3349C44.618 49.9808 42.3394 50.9054 39.9635 50.9054H32.3167C32.0022 51.4391 31.5499 51.8822 31.0052 52.1903C30.4604 52.4984 29.8425 52.6607 29.2135 52.6607H25.6302C24.6798 52.6607 23.7684 52.2908 23.0964 51.6325C22.4244 50.9741 22.0469 50.0812 22.0469 49.1502C22.0469 48.2191 22.4244 47.3262 23.0964 46.6679C23.7684 46.0095 24.6798 45.6396 25.6302 45.6396H29.2135C29.8425 45.6397 30.4604 45.8019 31.0052 46.11C31.5499 46.4181 32.0022 46.8612 32.3167 47.3949H39.9635C41.3891 47.3949 42.7562 46.8401 43.7642 45.8526C44.7722 44.8651 45.3385 43.5257 45.3385 42.1291H41.7552C40.8048 42.1291 39.8934 41.7593 39.2214 41.1009C38.5494 40.4426 38.1719 39.5497 38.1719 38.6186V28.0871C38.1719 27.156 38.5494 26.2631 39.2214 25.6048C39.8934 24.9464 40.8048 24.5765 41.7552 24.5765H45.3385V21.066C45.3385 18.761 44.8751 16.4785 43.9747 14.3489C43.0743 12.2194 41.7546 10.2844 40.0909 8.65448C38.4272 7.02457 36.452 5.73166 34.2783 4.84956C32.1045 3.96746 29.7747 3.51345 27.4219 3.51345Z" fill="white"/>
</svg>
