<svg viewBox="0 0 48 60" fill="none" xmlns="http://www.w3.org/2000/svg"><path d="M24.06 59.13c-6.8-1.73-12.43-5.66-16.86-11.8a34.08 34.08 0 0 1-6.64-20.43v-18.03l23.5-8.87 23.5 8.87v18.03c0 7.5-2.22 14.3-6.65 20.44-4.43 6.14-10.04 10.07-16.85 11.79Zm0-6.21c5.09-1.63 9.3-4.88 12.63-9.76a28.2 28.2 0 0 0 5-16.26v-13.97l-17.63-6.65-17.63 6.65v13.97a28.2 28.2 0 0 0 5 16.26c3.33 4.88 7.54 8.13 12.63 9.76Z" fill="#18A0FB"/><path d="M24.06 15.16a14.4 14.4 0 1 1 0 28.8 14.4 14.4 0 0 1 0-28.8Zm0 2.88a11.52 11.52 0 1 0 0 23.05 11.52 11.52 0 0 0 0-23.05Zm0 2.88a1.44 1.44 0 0 1 1.43 1.27l.01.17v6.6l3.9 3.9a1.44 1.44 0 0 1-1.9 2.16l-.14-.12-4.32-4.32a1.44 1.44 0 0 1-.4-.83l-.02-.19v-7.2a1.44 1.44 0 0 1 1.44-1.44Z" fill="#18A0FB"/></svg>