<svg viewBox="0 0 63 61" fill="none" xmlns="http://www.w3.org/2000/svg"><path d="M1.87 43.4a1.13 1.13 0 0 1-.42-.93c0-.78.59-1.36 1.26-1.36h57.56c.68 0 1.26.58 1.26 1.36 0 .4-.15.73-.42.94-2.21 1.71-11.05 7.45-29.62 7.45s-27.4-5.74-29.62-7.45Zm23.34-38.65c0-1.73 1.31-3.08 2.89-3.08h6.79c1.57 0 2.89 1.35 2.89 3.08v11.42c0 .88.68 1.63 1.57 1.63a1.56 1.56 0 0 0 1.38-.84l4.85-8.96c7.38 4.06 12.47 12.18 12.56 21.58v6.94h-53.3v-6.67c0-9.52 5.12-17.76 12.57-21.85l4.85 8.96c.28.52.8.84 1.38.84.9 0 1.57-.75 1.57-1.63v-11.42Z" fill="#18A0FB" stroke="#fff"/><path d="m12.75 54.04 2.82 1.56-8.95 3.75-.6-8.8 2.8 1.18.32.13.22-.27 20.23-24.1h7.05l.14-.2 14.47-19.48 4.1 3.07-15.68 20h-7.71l-.15.16-19.2 22.2-.41.49.55.3Z" fill="#18A0FB" stroke="#fff"/></svg>