<svg viewBox="0 0 71 68" fill="none" xmlns="http://www.w3.org/2000/svg"><path d="M30.48 17.61c3.26 0 6.4 1.24 8.7 3.44 2.3 2.2 3.6 5.2 3.6 8.3 0 3.12-1.3 6.1-3.6 8.31a12.6 12.6 0 0 1-8.7 3.44 12.6 12.6 0 0 1-8.7-3.44 11.5 11.5 0 0 1-3.6-8.3c0-3.12 1.3-6.1 3.6-8.3a12.6 12.6 0 0 1 8.7-3.45Zm0 5.88a6.3 6.3 0 0 0-4.35 1.72 5.74 5.74 0 0 0-1.8 4.15c0 1.55.65 3.05 1.8 4.15a6.3 6.3 0 0 0 4.35 1.72 6.3 6.3 0 0 0 4.35-1.72 5.74 5.74 0 0 0 1.8-4.15 5.7 5.7 0 0 0-1.8-4.15 6.3 6.3 0 0 0-4.35-1.72Zm-6.15 35.23c-.77 0-1.41-.53-1.54-1.24l-1.14-7.78a21.61 21.61 0 0 1-5.2-2.9l-7.65 2.96c-.68.24-1.5 0-1.88-.64l-6.15-10.16a1.4 1.4 0 0 1 .37-1.88l6.49-4.87-.22-2.85.22-2.94-6.49-4.78a1.4 1.4 0 0 1-.37-1.88l6.15-10.16c.37-.65 1.2-.91 1.88-.65l7.66 2.94a22.57 22.57 0 0 1 5.2-2.88l1.13-7.78c.13-.7.77-1.23 1.54-1.23h12.3c.77 0 1.42.53 1.54 1.23l1.14 7.78a22.6 22.6 0 0 1 5.2 2.88l7.66-2.94c.67-.26 1.5 0 1.87.65l6.15 10.16c.4.64.22 1.44-.37 1.88l-6.49 4.78.22 2.94-.22 2.93 6.5 4.79c.58.44.76 1.23.36 1.88l-6.15 10.16c-.37.64-1.2.9-1.87.64l-7.66-2.93a22.57 22.57 0 0 1-5.2 2.87l-1.14 7.78c-.12.7-.77 1.24-1.54 1.24h-12.3Zm3.85-52.85-1.14 7.66a17.1 17.1 0 0 0-9.32 5.23l-7.41-3.05-2.31 3.81 6.49 4.55a15.6 15.6 0 0 0 0 10.57l-6.52 4.58 2.3 3.82 7.48-3.05a16.93 16.93 0 0 0 9.26 5.16l1.13 7.7h4.68l1.14-7.67a17.15 17.15 0 0 0 9.26-5.2l7.47 3.06 2.3-3.82-6.51-4.55a15.68 15.68 0 0 0 0-10.6l6.49-4.55-2.31-3.81-7.41 3.05a16.85 16.85 0 0 0-9.32-5.2l-1.14-7.69h-4.61Z" fill="#18A0FB"/><path d="m59.01 23.15-2.41-1.85 9.05-1.99-.76 8.07-2.46-1.5-.3-.17-.27.22-23.06 18.83-6.51-1.08-.25-.04-.18.16-16.82 15.51-3.43-3.44 18.05-15.77 7.18 1.2.21.03.18-.14 21.79-17.25.5-.4-.5-.4Z" fill="#18A0FB" stroke="#fff"/></svg>