<svg viewBox="0 0 65 65" fill="none" xmlns="http://www.w3.org/2000/svg"><path d="M53.79 1v23.74Zm10.21 10.18-10.21-10.18Zm-20.43 0 10.22-10.18Z" fill="#fff"/><path d="M53.79 1v23.74m0-23.74 10.21 10.18m-10.21-10.18-10.22 10.18" stroke="#18A0FB" stroke-width="2" stroke-linecap="round" stroke-linejoin="round"/><path d="m3 18.58 21.64-6.57 21.62 6.57v13.47c0 14.16-8.72 25.48-21.63 29.95-12.92-4.47-21.63-15.8-21.63-29.96v-13.46Z" fill="#fff" stroke="#18A0FB" stroke-width="6" stroke-linejoin="round"/><path d="M24.63 35.76c3.32 0 6-2.8 6-6.25a6.13 6.13 0 0 0-6-6.25c-3.32 0-6 2.8-6 6.25a6.13 6.13 0 0 0 6 6.25Z" fill="#fff" stroke="#18A0FB" stroke-width="4" stroke-linecap="round" stroke-linejoin="round"/><path d="M34.24 45.75a10.2 10.2 0 0 0-2.82-7.06 9.43 9.43 0 0 0-6.8-2.93 9.43 9.43 0 0 0-6.8 2.93 10.2 10.2 0 0 0-2.8 7.06" fill="#fff"/><path d="M34.24 45.75a10.2 10.2 0 0 0-2.82-7.06 9.43 9.43 0 0 0-6.8-2.93 9.43 9.43 0 0 0-6.8 2.93 10.2 10.2 0 0 0-2.8 7.06" stroke="#18A0FB" stroke-width="4" stroke-linecap="round" stroke-linejoin="round"/></svg>