<svg viewBox="0 0 65 68" fill="none" xmlns="http://www.w3.org/2000/svg"><path d="M.95 43.86c-.28-.2-.45-.56-.45-.96 0-.77.62-1.39 1.37-1.39h61.26c.75 0 1.37.62 1.37 1.4 0 .39-.16.73-.45.95-2.37 1.74-11.78 7.58-31.55 7.58-19.78 0-29.19-5.84-31.55-7.58Zm24.83-39.28c0-1.74 1.4-3.14 3.1-3.14h7.23c1.72 0 3.11 1.4 3.11 3.14v11.6a1.64 1.64 0 0 0 3.07.82l5.18-9.13a25.02 25.02 0 0 1 13.42 21.94v7.06h-56.78v-6.79c0-9.67 5.45-18.06 13.42-22.22l5.18 9.14a1.64 1.64 0 0 0 3.07-.82v-11.6Z" fill="#18A0FB" stroke="#fff"/><path d="m12.57 54.64 3.03 1.62-9.58 3.83-.64-9 3 1.2.32.14.23-.27 21.53-24.5h7.5l.15-.2 15.4-19.8 4.41 3.15-16.7 20.34h-8.21l-.15.16-20.43 22.55-.43.48.57.3Z" fill="#18A0FB" stroke="#fff"/></svg>