<svg viewBox="0 0 61 64" fill="none" xmlns="http://www.w3.org/2000/svg"><path d="M29.14 18.93c3.17 0 6.22 1.3 8.46 3.59a12.41 12.41 0 0 1 0 17.31 11.82 11.82 0 0 1-8.46 3.58c-3.17 0-6.21-1.29-8.45-3.58-2.25-2.3-3.5-5.4-3.5-8.66 0-3.24 1.25-6.35 3.5-8.65a11.82 11.82 0 0 1 8.45-3.59Zm0 6.12c-1.58 0-3.1.65-4.23 1.8a6.2 6.2 0 0 0 0 8.65 5.91 5.91 0 0 0 8.46 0 6.2 6.2 0 0 0 0-8.65 5.91 5.91 0 0 0-4.23-1.8Zm-5.98 36.72c-.74 0-1.37-.55-1.5-1.28l-1.1-8.11c-1.88-.76-3.5-1.8-5.05-3.03l-7.45 3.1c-.65.24-1.46 0-1.82-.68l-5.98-10.59a1.54 1.54 0 0 1 .36-1.96l6.3-5.08-.2-2.97.2-3.06-6.3-4.98a1.54 1.54 0 0 1-.36-1.96l5.98-10.59a1.45 1.45 0 0 1 1.82-.67l7.45 3.06a21.56 21.56 0 0 1 5.05-3l1.1-8.11c.13-.73.76-1.28 1.5-1.28h11.96c.75 0 1.38.55 1.5 1.28l1.1 8.1c1.89.77 3.5 1.81 5.06 3l7.44-3.05c.66-.28 1.47 0 1.82.67l5.98 10.59c.4.67.21 1.5-.35 1.96l-6.31 4.98.2 3.06-.2 3.06 6.3 5c.57.45.75 1.28.36 1.95l-5.98 10.59c-.35.67-1.16.95-1.82.67l-7.44-3.06a21.56 21.56 0 0 1-5.06 3l-1.1 8.1a1.52 1.52 0 0 1-1.5 1.3h-11.96Zm3.74-55.07-1.1 7.98a16.35 16.35 0 0 0-9.06 5.45l-7.21-3.18-2.24 3.97 6.3 4.75a17.36 17.36 0 0 0 0 11.01l-6.33 4.78 2.24 3.97 7.27-3.18a16.2 16.2 0 0 0 9 5.39l1.1 8.01h4.54l1.11-7.98c3.56-.77 6.7-2.73 9-5.42l7.27 3.18 2.24-3.97-6.34-4.75c1.2-3.58 1.2-7.46 0-11.04l6.3-4.75-2.23-3.97-7.21 3.18a16.13 16.13 0 0 0-9.06-5.42l-1.1-8.01h-4.49Z" fill="#18A0FB"/><path d="m52.86 28.37-2.24-1.9 8.1-1.58-.4 7.85-2.24-1.53-.29-.2-.27.24-20.33 17.67-5.97-1.33-.24-.05-.18.18-14.75 14.62-3.26-3.53 15.84-14.81 6.57 1.46.22.05.18-.15 19.25-16.18.48-.41-.47-.4Z" fill="#18A0FB" stroke="#fff"/></svg>