<svg width="53" height="52" viewBox="0 0 53 52" fill="none" xmlns="http://www.w3.org/2000/svg">
<path d="M4.92188 46.4897V40.1917C4.92188 38.9546 5.21297 37.7925 5.79516 36.7054C6.37735 35.6182 7.18215 34.7935 8.20955 34.2312C9.95612 33.2565 11.9253 32.4318 14.1171 31.757C16.3089 31.0822 18.7232 30.7448 21.3602 30.7448C23.9972 30.7448 26.4116 31.0822 28.6034 31.757C30.7952 32.4318 32.7643 33.2565 34.5109 34.2312C35.5383 34.7935 36.3431 35.6182 36.9253 36.7054C37.5075 37.7925 37.7986 38.9546 37.7986 40.1917V46.4897H4.92188ZM9.03146 41.9911H33.689V40.1917C33.689 39.7794 33.5952 39.4045 33.4075 39.0671C33.2198 38.7297 32.9712 38.4673 32.6616 38.2799C31.4287 37.6051 29.8452 36.9303 27.9109 36.2555C25.9767 35.5807 23.7931 35.2434 21.3602 35.2434C18.9274 35.2434 16.7445 35.5807 14.8116 36.2555C12.8787 36.9303 11.2945 37.6051 10.0589 38.2799C9.75064 38.4673 9.5027 38.7297 9.31503 39.0671C9.12735 39.4045 9.03283 39.7794 9.03146 40.1917V41.9911ZM21.3602 28.4956C19.1 28.4956 17.165 27.6146 15.5554 25.8527C13.9458 24.0908 13.1411 21.9727 13.1411 19.4985H11.6V17.2492H13.1411C13.1411 15.5623 13.5178 14.044 14.2712 12.6945C15.0246 11.3449 16.0178 10.2765 17.2506 9.48929V12.7507H19.3054V8.58958C19.6137 8.47712 19.939 8.39315 20.2815 8.33767C20.6239 8.28218 20.9835 8.25369 21.3602 8.25219C21.7369 8.25069 22.0965 8.27918 22.439 8.33767C22.7815 8.39615 23.1068 8.48012 23.415 8.58958V12.7507H25.4698V9.48929C26.7027 10.2765 27.6958 11.3449 28.4493 12.6945C29.2027 14.044 29.5794 15.5623 29.5794 17.2492H31.1205V19.4985H29.5794C29.5794 21.9727 28.7746 24.0908 27.165 25.8527C25.5554 27.6146 23.6205 28.4956 21.3602 28.4956ZM21.3602 23.997C22.4904 23.997 23.4582 23.5569 24.2637 22.6767C25.0691 21.7965 25.4712 20.7371 25.4698 19.4985H17.2506C17.2506 20.7356 17.6534 21.795 18.4589 22.6767C19.2643 23.5584 20.2315 23.9985 21.3602 23.997ZM36.7712 32.9941L36.463 31.3071C36.2575 31.2322 36.0609 31.1482 35.8732 31.0552C35.6856 30.9623 35.5054 30.8213 35.3328 30.6324L33.8945 31.1947L32.8671 29.1703L33.9972 28.0457V26.6962L32.8671 25.5715L33.8945 23.5472L35.3328 24.1095C35.4698 23.9596 35.6411 23.8283 35.8465 23.7159C36.052 23.6034 36.2575 23.5097 36.463 23.4347L36.7712 21.7478H38.826L39.1342 23.4347C39.3397 23.5097 39.5452 23.6034 39.7506 23.7159C39.9561 23.8283 40.1274 23.9596 40.2643 24.1095L41.7027 23.5472L42.7301 25.5715L41.6 26.6962V28.0457L42.7301 29.1703L41.7027 31.1947L40.2643 30.6324C40.0931 30.8198 39.9137 30.9608 39.726 31.0552C39.5383 31.1497 39.3411 31.2337 39.1342 31.3071L38.826 32.9941H36.7712ZM37.7986 29.0579C38.2095 29.0579 38.5691 28.8892 38.8774 28.5518C39.1856 28.2144 39.3397 27.8208 39.3397 27.3709C39.3397 26.9211 39.1856 26.5275 38.8774 26.1901C38.5691 25.8527 38.2095 25.684 37.7986 25.684C37.3876 25.684 37.028 25.8527 36.7198 26.1901C36.4116 26.5275 36.2575 26.9211 36.2575 27.3709C36.2575 27.8208 36.4116 28.2144 36.7198 28.5518C37.028 28.8892 37.3876 29.0579 37.7986 29.0579ZM41.4972 21.7478L41.0863 19.386C40.778 19.2736 40.4958 19.1334 40.2397 18.9654C39.9835 18.7975 39.752 18.6003 39.5452 18.3739L37.3876 19.1611L35.9493 16.462L37.6958 14.7751C37.6273 14.5876 37.5931 14.4377 37.5931 14.3252V13.4255C37.5931 13.313 37.6273 13.1631 37.6958 12.9756L35.9493 11.2887L37.3876 8.58958L39.5452 9.37682C39.7506 9.1519 39.9821 8.95471 40.2397 8.78527C40.4972 8.61582 40.7794 8.47562 41.0863 8.36466L41.4972 6.00293H44.3739L44.7849 8.36466C45.0931 8.47712 45.376 8.61807 45.6335 8.78752C45.8911 8.95696 46.1219 9.1534 46.326 9.37682L48.4835 8.58958L49.9219 11.2887L48.1753 12.9756C48.2438 13.1631 48.278 13.313 48.278 13.4255V14.3252C48.278 14.4377 48.2438 14.5876 48.1753 14.7751L49.9219 16.462L48.4835 19.1611L46.326 18.3739C46.1205 18.5988 45.8897 18.796 45.6335 18.9654C45.3774 19.1349 45.0945 19.2751 44.7849 19.386L44.3739 21.7478H41.4972ZM42.9356 16.6869C43.6547 16.6869 44.263 16.4148 44.7602 15.8704C45.2575 15.3261 45.5054 14.6611 45.5041 13.8754C45.5027 13.0896 45.2541 12.4238 44.7582 11.878C44.2623 11.3322 43.6547 11.0608 42.9356 11.0638C42.2164 11.0668 41.6082 11.3389 41.1109 11.8803C40.6137 12.4216 40.3657 13.0866 40.3671 13.8754C40.3684 14.6641 40.6171 15.3299 41.113 15.8727C41.6089 16.4155 42.2164 16.6869 42.9356 16.6869Z" fill="white"/>
</svg>
