<svg viewBox="0 0 123 80" fill="none" xmlns="http://www.w3.org/2000/svg"><path d="M64.21 50.1h-2.25l5-16.82.18-.61-.48-.43-1.73-1.5-1.32-1.15-.32 1.72-3.5 18.79h-.54l2.8-20.07.1-.7-.62-.32-22.26-11.6-.61-.32-.52.47-10.62 9.56-.43.38.13.57 3.66 17.06-.76.26.01.05-.34.1-5.46-17.81v-4.9l.05-.05.01.22.11 2.3 1.02-.03.66.71 15.95-14.64.65-.6-.52-.73-1.39-1.91-.68-.94-.82.81-.71.69 1.85-1.83 30.37 26.23-6.67 17.04Zm-24.12-34.29.72.71-.44.83 16.35 8.87 1.13-1.64-13.33-11.59-.67-.58-.65.6-2.5 2.24-.08-.04-.53.6Zm-35.92 38.42 1.43 10.36.02.13-.02.13-1.44 11h14.03a6.6 6.6 0 0 0 3.3-.74 4.64 4.64 0 0 0 1.88-1.95c.43-.84.66-1.81.66-2.96a5.3 5.3 0 0 0-.64-2.67l-19.22-13.3Zm0 0h13.47c1.72 0 2.92.46 3.74 1.25l-17.2-1.25Zm17.25 11.52a6.5 6.5 0 0 0-1.06-.37l-2.42-.64 2.2-1.2.42-.25a4.5 4.5 0 0 0 1.59-1.87l-.73 4.33Zm0 0 .08.04a4.26 4.26 0 0 1 1.9 1.74l-1.98-1.78Zm-12.57-2.26-.12-.86-.66-4.7-.16-1.13h7.75c.92 0 1.76.26 2.38.93.58.61.85 1.39.85 2.24a3.5 3.5 0 0 1-.96 2.54l-9.08.98Zm0 0h.87m-.87 0h.87m0 0h5.84c.91 0 1.72-.33 2.37-.98l-8.21.98Zm9.56 8.8c.69-.7.97-1.62.97-2.63 0-1.03-.31-1.96-1.03-2.67a3.95 3.95 0 0 0-2.9-1.03h-7.46l-.12.87-.7 5.32-.14 1.13h8.75c1.02 0 1.94-.3 2.63-1Zm3.38-13.3a5.9 5.9 0 0 1-.51 2.43l-.77-5.94c.82.79 1.28 1.91 1.28 3.51Zm20.97 7.53-.1.06c-.35.17-.74.31-1.17.44l-1.31.38.75 1.13 4.87 7.31h-4.16l-5.22-8.04-.3-.46h-4.5v8.5h-3.67v-21.6h11.18a7.4 7.4 0 0 1 3.63.83 6.02 6.02 0 0 1 2.35 2.27c.55.95.85 2.13.85 3.48a6.7 6.7 0 0 1-.85 3.43 5.88 5.88 0 0 1-2.35 2.27Zm-10.14-9.44h-1v7.48h6.72a4 4 0 0 0 2.82-1 3.6 3.6 0 0 0 1.08-2.74c0-1.08-.32-2.06-1.09-2.77a4.01 4.01 0 0 0-2.81-.97h-5.72Zm59.04 12.87 1.85 3.01v-18.73h3.5v21.61h-5.58l-9.84-16.12-1.85-3.03v19.16h-3.5v-21.62h5.77l9.65 15.72Zm17.61-10.93v-1h-7.83v-3.79h19.35v3.8h-7.83v17.81h-3.69v-16.82Zm-40.43 11.1 3.42 8.88h-.72l-3.03-4.63-.3-.46h-14.39l-.3.46-3.03 4.63h-.72l3.42-8.88h15.65Zm-1.19-15.74v-4l3.47 2.22v9.53l-4.67 3.28h-10.88l-4.67-3.28v-9.53l3.48-2.22v4c0 4 2.84 7.48 6.63 7.48 3.8 0 6.64-3.48 6.64-7.48Z" fill="#18A0FB" stroke="#18A0FB" stroke-width="2"/><path d="m37.19 0-17.02 16.84v5.42l5.76 18.8.75-.24 1.07 3.29.98 1.14.2-1.59-.84-3.36.73-.25-3.82-17.8 10.55-9.5 22.1 11.51-2.94 21.07h2.5l3.63-19.47 1.72 1.49-5.35 17.98h4.25l7.13-18.21-31.4-27.12Zm-14.86 19.65-.11-2.28 14.57-14.17 1.38 1.9-15.85 14.55Zm15.24-8.72 3-2.7 13.24 11.5-16.24-8.8Zm-18.77 48.1c-.4-.2-.84-.34-1.32-.47l.5-.3a5.46 5.46 0 0 0 1.92-2.28c.4-.9.6-1.83.6-2.81 0-1.8-.52-3.2-1.58-4.2-1.05-1.02-2.52-1.52-4.4-1.52h-14.52l1.58 11.41-1.58 12.04h15.06c1.5 0 2.76-.29 3.77-.86a5.6 5.6 0 0 0 2.27-2.34c.5-1 .76-2.12.76-3.4 0-1.18-.25-2.23-.76-3.14a5.22 5.22 0 0 0-2.3-2.13Zm-4.6-6.44c.37.4.56.92.56 1.55a2.5 2.5 0 0 1-.66 1.83c-.45.45-1 .67-1.65.67h-5.8l-.65-4.66h6.56c.7 0 1.25.2 1.63.61Zm1.24 13.09c-.45.46-1.08.68-1.9.68h-7.57l.7-5.28h6.54c.96 0 1.69.25 2.18.74.49.49.73 1.14.73 1.95a2.6 2.6 0 0 1-.68 1.9Zm25.37-4.16a6.83 6.83 0 0 0 2.72-2.63c.65-1.12.98-2.43.98-3.9a7.8 7.8 0 0 0-.98-3.96 6.97 6.97 0 0 0-2.72-2.63 8.36 8.36 0 0 0-4.08-.95h-12.1v23.45h5.63v-8.44h2.95l5.48 8.44h6.53l-5.87-8.8c.52-.15 1-.34 1.46-.58Zm-10.55-9.26h5.69a3 3 0 0 1 2.12.7c.5.48.76 1.15.76 2.02a2.6 2.6 0 0 1-.76 2c-.51.49-1.22.73-2.12.73h-5.69v-5.45Zm59.5 11.27-9.87-16.08h-7.29v23.45h5.46v-16.49l10.07 16.49h7.1v-23.45h-5.47v16.08Zm29.09-16.08h-21.2v5.75h7.77v17.7h5.65v-17.7h7.78v-5.75Zm-51.92 15.78h-16.92l-4.16 10.8h2.7l3.3-5.04h13.23l3.3 5.05h2.7l-4.15-10.79v-.02Z" fill="#000"/><path d="M64.06 42.8v5.79c0 3.55-2.5 6.44-5.6 6.44-3.09 0-5.6-2.89-5.6-6.44v-5.78l-5.43 3.46v10.54l5.32 3.73h11.43l5.32-3.73v-10.54l-5.44-3.46Z" fill="#000"/></svg>