<svg viewBox="0 0 117 75" fill="none" xmlns="http://www.w3.org/2000/svg"><path d="m36.38 0-16.65 16.84v5.42l5.63 18.8.74-.24 1.04 3.29.96 1.14.2-1.59-.82-3.36.71-.25-3.73-17.8 10.31-9.5 21.63 11.51-2.88 21.07h2.45l3.55-19.47 1.68 1.49-5.23 17.98h4.15l6.98-18.21-30.72-27.12Zm-14.54 19.65-.1-2.28 14.25-14.17 1.35 1.9-15.5 14.55Zm14.91-8.72 2.94-2.7 12.95 11.5-15.89-8.8Zm-18.35 48.1c-.4-.2-.83-.34-1.3-.47l.5-.3a5.44 5.44 0 0 0 1.87-2.28c.4-.9.59-1.83.59-2.81 0-1.8-.52-3.2-1.55-4.2-1.02-1.02-2.46-1.52-4.3-1.52h-14.21l1.54 11.41-1.54 12.04h14.74c1.47 0 2.7-.29 3.68-.86a5.55 5.55 0 0 0 2.22-2.34c.5-1 .75-2.12.75-3.4 0-1.18-.25-2.23-.75-3.14a5.15 5.15 0 0 0-2.25-2.13Zm-4.52-6.44c.38.4.56.92.56 1.55a2.5 2.5 0 0 1-.65 1.83c-.43.45-.97.67-1.6.67h-5.68l-.64-4.66h6.42c.69 0 1.22.2 1.6.61Zm1.23 13.09c-.45.46-1.07.68-1.86.68h-7.4l.67-5.28h6.4c.95 0 1.66.25 2.13.74.48.49.72 1.14.72 1.95s-.22 1.45-.66 1.9Zm24.82-4.16a6.75 6.75 0 0 0 2.66-2.63c.64-1.12.96-2.43.96-3.9a7.9 7.9 0 0 0-.96-3.96 6.89 6.89 0 0 0-2.66-2.63 8.04 8.04 0 0 0-4-.95h-11.83v23.45h5.5v-8.44h2.9l5.35 8.44h6.39l-5.74-8.8c.5-.15.98-.34 1.43-.58Zm-10.32-9.26h5.56c.88 0 1.58.24 2.07.7.5.48.75 1.15.75 2.02 0 .88-.25 1.53-.75 2-.5.49-1.19.73-2.07.73h-5.56v-5.45Zm58.2 11.27-9.65-16.08h-7.13v23.45h5.34v-16.49l9.85 16.49h6.94v-23.45h-5.35v16.08Zm28.46-16.08h-20.75v5.75h7.61v17.7h5.54v-17.7h7.6v-5.75Zm-50.79 15.78h-16.55l-4.07 10.8h2.64l3.23-5.04h12.94l3.23 5.05h2.64l-4.06-10.79v-.02Z" fill="#fff"/><path d="M62.67 42.8v5.79c0 3.55-2.45 6.44-5.47 6.44-3.03 0-5.48-2.89-5.48-6.44v-5.78l-5.32 3.46v10.54l5.2 3.73h11.19l5.2-3.73v-10.54l-5.32-3.46Z" fill="#fff"/></svg>