<svg viewBox="0 0 79 72" fill="none" xmlns="http://www.w3.org/2000/svg"><path d="M70.99 22.75c-.1.72-.4 1.4-.85 1.96l-30.02 37.9a4.1 4.1 0 0 1-2.2 1.4c-.57.14-1.17.14-1.74 0a4.08 4.08 0 0 1-2.48-1.44l-30.02-37.86a3.94 3.94 0 0 1-.25-4.59l10.65-16.25.32-.4a4.05 4.05 0 0 1 3.1-1.44h38.82c.31-.04.63-.04.94 0a4.1 4.1 0 0 1 2.48 1.72l10.64 16.26c.54.8.75 1.79.61 2.74Z" stroke="#18A0FB" stroke-width="4" stroke-linecap="round" stroke-linejoin="round"/><path d="m45.04 2.15 5.8 20.6-12.92 41.21m-1.74.05-14.83-41.26 7.44-20.6m-25.96 20.6h68.16" stroke="#18A0FB" stroke-width="3" stroke-linecap="round" stroke-linejoin="round"/><path d="M49.48 61.24a5.48 5.48 0 0 1-1.67-4.46 5 5 0 0 1 2.17-4v-.01h.01l19.56-12.8a23.78 23.78 0 0 0-6.61-4.14 22.84 22.84 0 0 0-8.99-1.77l-4.47 27.18Zm0 0a5.96 5.96 0 0 0 4.57 1.7c1.78-.08 3.23-.73 4.14-2.1l13.05-19.2m-21.76 19.6 21.76-19.6m0 0a23.6 23.6 0 0 1 4.08 6.2 21.5 21.5 0 0 1 1.92 8.76 22.1 22.1 0 0 1-3.15 11.9 3.3 3.3 0 0 1-1.38 1.32c-.6.3-1.27.46-2.02.46h-33.54a4.4 4.4 0 0 1-2.01-.46 3.34 3.34 0 0 1-1.39-1.31 25.5 25.5 0 0 1-2.33-5.6c-.55-1.91-.82-3.9-.82-5.97 0-3.17.61-6.13 1.84-8.9a23.14 23.14 0 0 1 12.4-12.18c2.84-1.2 5.87-1.8 9.11-1.8l17.29 7.58Z" fill="#18A0FB" stroke="#fff" stroke-width="2"/><path d="M49.08 53.36s-1.1 5.46.62 7.14c1.71 1.68 6.68 1.22 6.68 1.22l4.87-5.97 9.74-15.53-21.91 13.14Z" fill="#fff"/></svg>