<svg viewBox="0 0 76 74" fill="none" xmlns="http://www.w3.org/2000/svg"><path d="m37.3 54.23-.36.35-.4-.35c-17.44-15.03-28.96-24.97-28.96-35.05 0-6.97 5.5-12.2 12.84-12.2 5.65 0 14.57 3.48 16.52 8.23 1.94-4.75 10.86-8.23 16.5-8.23 7.35 0 12.85 5.23 12.85 12.2 0 10.08-11.52 20.02-28.99 35.05Zm16.15-54.23a22.56 22.56 0 0 0-16.51 7.25 22.56 22.56 0 0 0-16.52-7.25c-11.3 0-20.18 8.4-20.18 19.18 0 13.15 12.48 23.93 31.38 40.22l5.32 4.6 5.32-4.6c18.9-16.3 31.37-27.07 31.37-40.22 0-10.77-8.88-19.18-20.18-19.18Z" fill="#18A0FB"/><path d="M55.79 74a26.6 26.6 0 0 1-14.22-10 27.66 27.66 0 0 1-5.66-17.02v-14.82l19.88-7.16 19.88 7.16v14.82c0 6.3-1.89 11.98-5.66 17.01a26.63 26.63 0 0 1-14.22 10Z" fill="#18A0FB"/><path d="m65.74 36-15.06 12.82-4.88-4.16-4.8 4.08 4.9 4.16 4.81 4.1 4.8-4.08 15.06-12.82-4.83-4.1Z" fill="#fff"/></svg>