<svg viewBox="0 0 96 74" fill="none" xmlns="http://www.w3.org/2000/svg"><path d="m54.11 0-17.89 17.55-5.06 15.78 3.3 6.67 3.83 1.69 6.24-10.01 2.12-.66 11.6 4.88 3.81-2.36.84-7.94 2.15 9.74-2 2.58.71.3.99 1.18 1.28 6.24 10.52-12.14 2.63.05 4.2 5.19-1.77-9.5-5.65-18.72-21.85-10.52Zm-36.48 2.18-5.55 9.47-.86 5.02 4.88-1.54 2.2 1.34.01.12 5.32 10.88 2.59-.83 2.06.85.73 1.49 3.67-11.43-.2-6.06-7.55-.1-5.58-4.32 6.4 1.98 7.98-1.4 4.9 2.88 6.81-6.69-1.61-.64-14.96 1.84-.66-.04-10.58-2.82Zm46.86 6.62 8.84 12 .4 11.35-4.76-10.85-12.27-10.97 7.79-1.53Zm-49.28 10.05-12.07 3.8-3.14 14.27 9.55 1.01.1-1.3 7.09-6.67-1.53-11.11Zm10.65 11.35-6.84 2.18-5.95 5.6 4.25 5.61 10.77.32 3.1-2.94-5.33-10.77Zm20.8 4.4-8.32 13.36-.01 10.38 18.28 2.22 8.31-3.55-3.32-16.14-14.94-6.28Zm31.14 2.55-8.8 10.16.05.32 12.25 2.52 4.84-2.71-8.34-10.29Zm-26 2.89 7.37 4.15 2.52 9.2-5.04 4.34-8.46-.47 7.25-5.13.46-7.13-4.1-4.96Zm-44.8 9.78-1.65 5.18 2.47 8.82 17.11-2.17.25-4.8-11.76-5.81-6.42-1.22Z" fill="#18A0FB"/><path d="M49.14 44.93c1.12-1.96 2.14-3.78 3.07-5.46 2.68-4.78 4.72-8.42 6.65-11.09 2.55-3.53 4.5-4.75 6.89-4.75 2.41 0 4.58 1.33 7.54 4.96 2.14 2.64 4.47 6.18 7.45 10.72l3.76 5.69 1.02 1.78c3.56 6.25 6.09 10.72 7.38 14.18 1.28 3.43 1.12 5.3.1 6.74-1.1 1.55-3.12 2.58-7.3 3.12-4.18.55-9.92.55-17.84.55h-2.11c-7.92 0-13.67 0-17.84-.55-4.18-.54-6.21-1.57-7.3-3.12-1.02-1.45-1.18-3.31.1-6.74 1.29-3.46 3.82-7.93 7.38-14.18l1.05-1.85Z" fill="#18A0FB" stroke="#fff" stroke-width="4"/><path d="M65.92 63.02v-.86Zm0-24.14v17.25Z" fill="#18A0FB"/><path d="M65.92 63.02v-.86m0-23.28v17.25" stroke="#fff" stroke-width="2" stroke-linecap="round" stroke-linejoin="round"/></svg>