<svg viewBox="0 0 76 75" fill="none" xmlns="http://www.w3.org/2000/svg"><path d="m42.71 0-14.12 17.33-4 15.57 2.61 6.59 3.03 1.66 4.92-9.88 1.68-.64 9.16 4.81 3-2.33.67-7.84 1.7 9.62-1.59 2.54.56.3.78 1.16 1.02 6.16 8.3-11.97 2.07.04 3.33 5.12-1.4-9.37-4.46-18.48-17.25-10.39Zm-28.8 2.15-4.37 9.35-.69 4.95 3.86-1.51 1.73 1.32.02.12 4.2 10.73 2.04-.81 1.62.84.58 1.47 2.9-11.29-.16-5.98-5.96-.1-4.4-4.26 5.04 1.96 6.3-1.39 3.87 2.85 5.38-6.6-1.27-.64-11.8 1.82-.53-.04-8.35-2.79Zm37 6.53 6.98 11.85.3 11.21-3.74-10.7-9.7-10.84 6.16-1.52Zm-38.9 9.93-9.53 3.74-2.48 14.1 7.54 1 .08-1.28 5.6-6.59-1.21-10.97Zm8.4 11.2-5.4 2.16-4.7 5.53 3.36 5.54 8.5.3 2.45-2.89-4.2-10.64Zm16.43 4.34-6.58 13.2v10.24l14.43 2.2 6.56-3.5-2.62-15.94-11.8-6.2Zm24.58 2.53-6.95 10.02.04.32 9.67 2.49 3.82-2.68-6.58-10.15Zm-20.53 2.85 5.82 4.1 1.99 9.08-3.98 4.28-6.68-.46 5.72-5.07.37-7.03-3.24-4.9Zm-35.36 9.66-1.3 5.11 1.95 8.7 13.5-2.14.2-4.74-9.29-5.74-5.06-1.2Z" fill="#18A0FB"/><path d="M36.72 51.53c.94-1.64 1.79-3.16 2.57-4.55 2.21-3.97 3.9-6.97 5.49-9.17 2.1-2.9 3.63-3.81 5.45-3.81 1.85 0 3.56 1 6 4 1.77 2.18 3.7 5.1 6.16 8.86l3.14 4.74.84 1.47c2.96 5.2 5.05 8.89 6.1 11.73 1.05 2.81.88 4.22.13 5.3-.82 1.16-2.38 2-5.84 2.45-3.44.45-8.18.45-14.78.45h-1.75c-6.6 0-11.34 0-14.78-.45-3.45-.45-5.02-1.3-5.84-2.46-.75-1.07-.92-2.48.12-5.29 1.07-2.84 3.16-6.53 6.11-11.73l.88-1.54Z" fill="#18A0FB" stroke="#fff" stroke-width="4"/><path d="M50.38 66.4v-.72Zm0-20.07v14.34Z" fill="#18A0FB"/><path d="M50.38 66.4v-.72m0-19.35v14.34" stroke="#fff" stroke-width="2" stroke-linecap="round" stroke-linejoin="round"/></svg>