<svg viewBox="0 0 45 47" fill="none" xmlns="http://www.w3.org/2000/svg"><path d="M22.5 0c-5.97 0-11.7 2.43-15.9 6.75a23.36 23.36 0 0 0-6.6 16.3c0 6.12 2.37 12 6.6 16.31a22.22 22.22 0 0 0 15.9 6.76c5.97 0 11.7-2.43 15.9-6.76a23.36 23.36 0 0 0 6.6-16.3 23.3 23.3 0 0 0-6.6-16.3 22.22 22.22 0 0 0-15.9-6.76Z" fill="url(#a)"/><path d="M10.17 22.82a1079.5 1079.5 0 0 1 13.1-5.79c6.25-2.66 7.54-3.12 8.39-3.14.18 0 .6.05.87.27a1 1 0 0 1 .32.62c.02.18.06.6.03.91-.34 3.65-1.8 12.49-2.54 16.57-.32 1.73-.94 2.3-1.54 2.36-1.3.13-2.3-.88-3.56-1.73-1.97-1.33-3.09-2.16-5.01-3.45-2.22-1.5-.78-2.33.48-3.68.33-.35 6.08-5.71 6.2-6.2 0-.06.02-.29-.11-.4-.13-.13-.32-.08-.46-.05-.2.04-3.36 2.19-9.48 6.42-.9.64-1.7.94-2.44.93-.8-.02-2.34-.47-3.5-.85-1.4-.47-2.52-.72-2.42-1.52.05-.41.6-.83 1.67-1.27Z" fill="#fff"/><defs><linearGradient id="a" x1="2250" y1="0" x2="2250" y2="4611.8" gradientUnits="userSpaceOnUse"><stop stop-color="#2AABEE"/><stop offset="1" stop-color="#229ED9"/></linearGradient></defs></svg>