<svg viewBox="0 0 305 211" fill="none" xmlns="http://www.w3.org/2000/svg"><path d="M32.53 190.98c-.4.16-.6.48-.6.96 0 .32.08.62.24.9.96 1.72 2.5 3.87 4.63 6.46a1.7 1.7 0 0 1-.07.22l-.1.24a25.54 25.54 0 0 1-1.75 3.65c-.14.24-.4.57-.74 1a7.5 7.5 0 0 0-.84 1.23 2.85 2.85 0 0 0-.44 1.37c0 .37.12.73.34 1.08.22.33.51.59.86.77.21.1.44.16.7.16.58 0 .9-.24.96-.74.02-.18.06-.34.14-.48a3 3 0 0 1 .46-.6l.31-.4c.37-.49.7-.98 1.01-1.47.48-.85.98-1.9 1.51-3.17 2.02 2.53 3.39 4.78 4.1 6.74.17.4.41.76.75 1.06.32.3.68.46 1.08.46h.02c.3 0 .52-.1.7-.32.16-.2.24-.45.24-.74 0-.16-.02-.31-.07-.46a22.34 22.34 0 0 0-2.28-4.48c-.95-1.41-2.14-3-3.58-4.76l1.15-2.92 1.04-2.72c.06-.17.1-.36.1-.57 0-.6-.28-1.11-.82-1.56a1.81 1.81 0 0 0-1.18-.43c-.37 0-.6.15-.72.45l-1.87 4.9a37.55 37.55 0 0 1-3.29-4.75c-.16-.3-.4-.55-.7-.77a1.5 1.5 0 0 0-.93-.36c-.13 0-.25.01-.36.05Zm259.29-129.72.56-.12c.41-1.25.85-2.56 1.32-3.92a3.4 3.4 0 0 1-1.73-1.68c-.3-.73-.46-1.6-.46-2.61 0-.45.03-1.09.1-1.92.08-.83.13-1.37.14-1.61a3.88 3.88 0 0 1-.21-1.22c0-.93.38-1.59 1.15-1.97.2-.05.4-.07.57-.07.52 0 .87.17 1.06.52.2.34.31.83.31 1.47 0 .38-.05 1.02-.14 1.92-.1.9-.15 1.54-.15 1.94 0 .9.17 1.53.5 1.9.3-.51.58-1.23.85-2.16.29-.95.53-1.79.72-2.52.19-.74.52-1.44.98-2.11a3.43 3.43 0 0 1 1.75-1.4c.3 0 .52.1.68.32.17.2.26.45.26.74 0 .16-.03.32-.1.48a303.68 303.68 0 0 0-5.32 15.2 2.4 2.4 0 0 1-.6.93c-.28.29-.57.46-.9.53a8 8 0 0 1-2.25.43c-1.21 0-1.85-.56-1.92-1.68-.72-.23-1.08-.59-1.08-1.08 0-.48.27-.95.8-1.4a2.56 2.56 0 0 1 1.63-.64c.38 0 .7.13.98.4.27.3.44.73.5 1.33Z" fill="#E5E5E5"/><path d="m277 0-2.91 4.99 5.77.02-2.86-5.01Zm-.5 209 .98-204.5h-1l-.98 204.5h1Z" fill="#fff"/><path d="m0 183.48 5-2.88v5.77l-5-2.89Zm304.5.5h-300v-1h300v1Z" fill="#fff"/></svg>