<svg viewBox="0 0 497 610" fill="none" xmlns="http://www.w3.org/2000/svg"><path d="M494.47 16.98c.4.16.6.48.6.96 0 .32-.08.62-.24.9a47.51 47.51 0 0 1-4.63 6.46l.07.22.1.24.07.22a26.9 26.9 0 0 0 1.68 3.43c.14.24.4.57.74 1 .36.44.64.85.84 1.23a2.85 2.85 0 0 1 .44 1.37c0 .37-.12.73-.34 1.08-.22.33-.51.59-.86.77-.21.1-.44.16-.7.16-.58 0-.9-.24-.96-.74a1.2 1.2 0 0 0-.14-.48 2.8 2.8 0 0 0-.46-.6l-.31-.4c-.37-.49-.7-.98-1.01-1.47-.48-.85-.98-1.9-1.51-3.17-2.02 2.53-3.39 4.78-4.1 6.74-.17.4-.41.76-.75 1.06-.32.3-.68.46-1.08.46h-.02a.87.87 0 0 1-.7-.32c-.16-.2-.24-.45-.24-.74 0-.16.02-.31.07-.46.6-1.58 1.35-3.08 2.28-4.48.95-1.41 2.14-3 3.58-4.76l-1.15-2.92-1.04-2.72a1.7 1.7 0 0 1-.1-.57c0-.6.28-1.11.82-1.56.36-.29.75-.43 1.18-.43.37 0 .6.15.72.45l1.87 4.9a38.45 38.45 0 0 0 3.29-4.75c.16-.3.4-.55.7-.77.3-.24.61-.36.93-.36.13 0 .25.01.36.05Zm-270.65 588.28.56-.12c.41-1.25.85-2.56 1.32-3.92a3.4 3.4 0 0 1-1.73-1.68c-.3-.73-.46-1.6-.46-2.61 0-.45.03-1.09.1-1.92.08-.83.13-1.37.14-1.61a3.88 3.88 0 0 1-.21-1.22c0-.93.38-1.59 1.15-1.97.2-.05.4-.07.57-.07.52 0 .87.17 1.06.52.2.34.31.83.31 1.47 0 .38-.05 1.02-.14 1.92-.1.9-.15 1.54-.15 1.94 0 .9.17 1.53.5 1.9.3-.51.58-1.23.85-2.16.29-.95.53-1.79.72-2.52.19-.74.52-1.44.98-2.11a3.43 3.43 0 0 1 1.75-1.4c.3 0 .52.1.68.32.17.2.26.45.26.74 0 .16-.03.32-.1.48a303.68 303.68 0 0 0-5.32 15.2 2.4 2.4 0 0 1-.6.93c-.28.29-.57.46-.9.53a8 8 0 0 1-2.25.43c-1.21 0-1.85-.56-1.92-1.68-.72-.23-1.08-.59-1.08-1.08 0-.48.27-.95.8-1.4a2.56 2.56 0 0 1 1.63-.64c.38 0 .7.13.98.4.27.3.44.73.5 1.33Z" fill="#E5E5E5"/><path d="m473 0-2.89 5h5.78l-2.89-5Zm.5 597v-592.5h-1v592.5h1Z" fill="#fff"/><path d="m0 580 495.5-.5" stroke="#fff"/></svg>