<svg viewBox="0 0 45 47" fill="none" xmlns="http://www.w3.org/2000/svg"><path d="M.96 23.5c0 3.9 1 7.69 2.89 11.03l-3.07 11.44 11.46-3.07a21.28 21.28 0 0 0 10.34 2.68c11.93 0 21.63-9.9 21.64-22.06 0-5.9-2.25-11.44-6.33-15.6a21.28 21.28 0 0 0-15.3-6.48c-11.92 0-21.63 9.9-21.63 22.06" fill="url(#a)"/><path d="M.19 23.5c0 4.02 1.03 7.96 2.99 11.42l-3.18 11.84 11.88-3.17a22.04 22.04 0 0 0 10.7 2.78h.01c12.35 0 22.4-10.25 22.41-22.85 0-6.11-2.33-11.85-6.56-16.17a22.04 22.04 0 0 0-15.85-6.7c-12.35 0-22.4 10.25-22.4 22.85Zm7.07 10.83-.44-.72a19.23 19.23 0 0 1-2.85-10.11c0-10.47 8.36-19 18.63-19 4.98 0 9.65 1.99 13.17 5.58a19.08 19.08 0 0 1 5.45 13.43c0 10.48-8.36 19-18.63 19a18.3 18.3 0 0 1-9.48-2.65l-.68-.41-7.05 1.88 1.88-7Z" fill="url(#b)"/><path d="M17 13.94c-.42-.95-.86-.97-1.26-.98-.33-.02-.7-.02-1.08-.02-.37 0-.98.15-1.49.72s-1.96 1.95-1.96 4.76c0 2.81 2 5.53 2.29 5.91.28.38 3.87 6.33 9.56 8.62 4.73 1.9 5.7 1.53 6.72 1.43 1.02-.1 3.31-1.38 3.78-2.72.46-1.33.46-2.47.32-2.71-.14-.24-.51-.38-1.07-.67a92.87 92.87 0 0 0-3.82-1.86c-.52-.19-.9-.28-1.26.3a37 37 0 0 1-1.78 2.23c-.32.38-.65.43-1.21.14-.56-.28-2.36-.89-4.5-2.83a17.16 17.16 0 0 1-3.12-3.96c-.32-.57-.03-.88.25-1.16.25-.26.56-.67.84-1 .28-.34.37-.57.56-.96.19-.38.1-.71-.05-1-.14-.28-1.23-3.1-1.72-4.24Z" fill="#fff"/><defs><linearGradient id="a" x1="2172.85" y1="4453.59" x2="2172.85" y2="1.444" gradientUnits="userSpaceOnUse"><stop stop-color="#1FAF38"/><stop offset="1" stop-color="#60D669"/></linearGradient><linearGradient id="b" x1="2250" y1="4612.45" x2="2250" y2=".646" gradientUnits="userSpaceOnUse"><stop stop-color="#F9F9F9"/><stop offset="1" stop-color="#fff"/></linearGradient></defs></svg>