<svg viewBox="0 0 45 47" fill="none" xmlns="http://www.w3.org/2000/svg"><path d="M.96 22.86c0 3.89 1 7.68 2.89 11.03l-3.07 11.43 11.46-3.07a21.28 21.28 0 0 0 10.34 2.69c11.93 0 21.63-9.9 21.64-22.06 0-5.9-2.25-11.44-6.33-15.61a21.28 21.28 0 0 0-15.3-6.47c-11.92 0-21.63 9.9-21.63 22.06" fill="url(#a)"/><path d="M.19 22.85c0 4.03 1.03 7.96 2.99 11.43l-3.18 11.84 11.88-3.18a22.05 22.05 0 0 0 10.7 2.78h.01c12.35 0 22.4-10.25 22.41-22.85 0-6.1-2.33-11.85-6.56-16.17a22.04 22.04 0 0 0-15.85-6.7c-12.35 0-22.4 10.25-22.4 22.85Zm7.07 10.83-.44-.72a19.23 19.23 0 0 1-2.85-10.1c0-10.48 8.36-19 18.63-19 4.98 0 9.65 1.98 13.17 5.57a19.08 19.08 0 0 1 5.45 13.44c0 10.47-8.36 19-18.63 19-3.35 0-6.62-.92-9.48-2.66l-.68-.4-7.05 1.88 1.88-7.01Z" fill="url(#b)"/><path d="M17 13.3c-.42-.95-.86-.97-1.26-.99l-1.08-.01c-.37 0-.98.14-1.49.71s-1.96 1.96-1.96 4.77c0 2.8 2 5.52 2.29 5.9.28.38 3.87 6.34 9.56 8.63 4.73 1.9 5.7 1.52 6.72 1.42 1.02-.1 3.31-1.38 3.78-2.71.46-1.33.46-2.48.32-2.72-.14-.23-.51-.38-1.07-.66a92.87 92.87 0 0 0-3.82-1.86c-.52-.2-.9-.29-1.26.29a34.1 34.1 0 0 1-1.78 2.23c-.32.39-.65.43-1.21.15-.56-.29-2.36-.9-4.5-2.84a17.16 17.16 0 0 1-3.12-3.95c-.32-.57-.03-.88.25-1.17.25-.25.56-.67.84-1 .28-.33.37-.57.56-.95.19-.38.1-.72-.05-1-.14-.29-1.23-3.11-1.72-4.24Z" fill="#fff"/><defs><linearGradient id="a" x1="2172.85" y1="4452.95" x2="2172.85" y2=".798" gradientUnits="userSpaceOnUse"><stop stop-color="#1FAF38"/><stop offset="1" stop-color="#60D669"/></linearGradient><linearGradient id="b" x1="2250" y1="4611.8" x2="2250" y2="0" gradientUnits="userSpaceOnUse"><stop stop-color="#F9F9F9"/><stop offset="1" stop-color="#fff"/></linearGradient></defs></svg>