<svg viewBox="0 0 917 375" fill="none" xmlns="http://www.w3.org/2000/svg"><path d="M21 319.46h85.45l21.03 54.6h-13.64l-16.67-25.53h-66.85l-16.68 25.52h-13.64l21-54.5v-.09Zm294.09-107.65-9.5-25.5 9.5 6 7.5-10.5 11 4.5 12-9.5h561a10 10 0 0 1 10 10v173.19a10 10 0 0 1-10 10h-611a10 10 0 0 1-10-10v-126.19l8-11v-21.5l21.5 10.5Z" fill="#18A0FB" fill-opacity=".7"/><path d="M308.59 171.81h38l-13.5 10.5-24.5-10.5Zm-32.5 2h29l16 6.5-6.5 8-38.5-14.5Zm9.5 24.5 6 4v18l-6 7.5v-29.5Zm-23.5-18.5 6 4 4 10-20.5-11.5 10.5-2.5Zm47.49-26-4.5 5-7.5 4.5 4.32-20.4 7.68 10.9Zm-40.2 20.09-23-6 11.07-7.59 11.94 13.59Zm12.08 11.7-9-3 2.4-5.92 6.6 8.92Zm-33.4-11.6-7.9 5.26-3.2-5.54 11.1.28Zm62.32-8.23 8.41-4.4 2.6 5.84-11-1.44Zm-27.79 21.04h18l8.5 20-26.5-20Z" fill="#18A0FB" fill-opacity=".7"/><path d="m171.23 0 86 85.06v27.42l23.77 27.02-2.5 7.5 12.5 15v8.5l-7-3-11.5-15.5-7 2.5-32.7-42.12-53.27-47.97-111.7 58.17 14.89 106.42h-12.64l-18.35-98.37-8.66 7.54 27.01 90.83h-21.46l-36-91.99 158.61-137.01Zm75.1 99.28.54-11.53-73.63-71.59-6.95 9.6 80.04 73.51v.01Zm-77-44.07-15.17-13.65-66.89 58.16 82.05-44.51Z" fill="#18A0FB" fill-opacity=".7"/><path d="M35.46 216.26v29.22c0 17.96 12.66 32.52 28.28 32.52 15.62 0 28.28-14.56 28.28-32.53v-29.2l27.47 17.52v53.2l-26.87 18.88h-57.76l-26.87-18.88v-53.2l27.46-17.53Z" fill="#18A0FB" fill-opacity=".7"/></svg>