<svg viewBox="0 0 917 375" fill="none" xmlns="http://www.w3.org/2000/svg"><path d="M21 319.46h85.45l21.03 54.6h-13.64l-16.67-25.53h-66.85l-16.68 25.52h-13.64l21-54.5v-.09Zm294.09-107.65-9.5-25.5 9.5 6 7.5-10.5 11 4.5 12-9.5h561a10 10 0 0 1 10 10v173.19a10 10 0 0 1-10 10h-611a10 10 0 0 1-10-10v-126.19l8-11v-21.5l21.5 10.5Z" fill="#18A0FB"/><path d="M308.59 171.81h38l-13.5 10.5-24.5-10.5Zm-32.5 2h29l16 6.5-6.5 8-38.5-14.5Zm9.5 24.5 6 4v18l-6 7.5v-29.5Zm-23.5-18.5 6 4 4 10-20.5-11.5 10.5-2.5Zm47.49-26-4.5 5-7.5 4.5 4.32-20.4 7.68 10.9Zm-40.2 20.09-23-6 11.07-7.59 11.94 13.58Zm12.08 11.7-9-3 2.4-5.92 6.6 8.92Zm-33.4-11.6-7.9 5.26-3.2-5.54 11.1.28Zm62.32-8.23 8.41-4.4 2.6 5.84-11-1.44Zm-27.79 21.04h18l8.5 20-26.5-20Z" fill="#18A0FB"/><path d="m171.23 0 86 85.06v27.42l23.77 27.02-2.5 7.5 12.5 15v8.5l-7-3-11.5-15.5-7 2.5-32.69-42.12-53.28-47.97-111.7 58.17 14.89 106.42h-12.63l-18.36-98.37-8.66 7.54 27.02 90.83h-21.47l-36-91.99 158.61-137.01Zm75.1 99.28.54-11.53-73.63-71.59-6.95 9.6 80.04 73.51v.01Zm-77-44.07-15.16-13.65-66.9 58.16 82.05-44.51Z" fill="#18A0FB"/><path d="M35.46 216.26v29.22c0 17.96 12.66 32.52 28.28 32.52 15.62 0 28.29-14.56 28.29-32.53v-29.2l27.46 17.52v53.2l-26.87 18.88h-57.76l-26.87-18.88v-53.2l27.47-17.53Z" fill="#18A0FB"/><path d="M328.02 324.56a17.9 17.9 0 0 1-6.16-1.04 14.78 14.78 0 0 1-4.88-3.04 14.27 14.27 0 0 1-3.2-4.6 14.64 14.64 0 0 1-1.16-5.88 14.35 14.35 0 0 1 4.36-10.48c1.39-1.3 3.02-2.3 4.88-3 1.9-.72 3.95-1.08 6.16-1.08 2.59 0 4.9.45 6.92 1.36 2.06.9 3.76 2.21 5.12 3.92l-5.04 4.56a9.85 9.85 0 0 0-3-2.44 8.65 8.65 0 0 0-6.76-.28c-.96.37-1.78.92-2.48 1.64-.66.7-1.2 1.53-1.6 2.52a9.19 9.19 0 0 0-.56 3.28c0 1.2.19 2.3.56 3.28.4.99.94 1.84 1.6 2.56a7.1 7.1 0 0 0 2.48 1.6 8.65 8.65 0 0 0 6.76-.28 9.85 9.85 0 0 0 3-2.44l5.04 4.56a13.85 13.85 0 0 1-5.12 3.92c-2.02.9-4.33 1.36-6.92 1.36Zm19.44-.56v-17.32l1.64 1.68h-8.65v-6.04h21.53v6.04h-8.65l1.69-1.68v17.32h-7.56Zm31.1.36c-1.84 0-3.41-.4-4.72-1.2a7.84 7.84 0 0 1-3-3.68c-.67-1.65-1-3.76-1-6.32 0-2.59.32-4.7.96-6.32a7.25 7.25 0 0 1 2.88-3.68 9.2 9.2 0 0 1 4.88-1.2 10.44 10.44 0 0 1 9.2 5.28 11.6 11.6 0 0 1 1.44 5.92c0 2.3-.48 4.28-1.44 5.96a9.77 9.77 0 0 1-3.84 3.88c-1.6.9-3.39 1.36-5.36 1.36Zm-13.64 7.4v-29.44h7.24v3.68l-.04 7.16.4 7.2v11.4h-7.6Zm12.04-13.44a4.34 4.34 0 0 0 3.92-2.36c.43-.77.64-1.7.64-2.8 0-1.1-.21-2.03-.64-2.8a4.34 4.34 0 0 0-3.92-2.36c-.85 0-1.63.2-2.32.6-.67.4-1.21.99-1.64 1.76a6 6 0 0 0-.6 2.8 6 6 0 0 0 .6 2.8c.43.77.97 1.36 1.64 1.76.7.4 1.47.6 2.32.6Zm28.26 5.68v-4.04l-.52-1v-7.44c0-1.2-.37-2.12-1.12-2.76-.72-.67-1.88-1-3.48-1-1.04 0-2.1.17-3.16.52a8.14 8.14 0 0 0-2.72 1.36l-2.56-5.16a14.4 14.4 0 0 1 4.4-1.84c1.73-.45 3.45-.68 5.16-.68 3.52 0 6.24.81 8.16 2.44 1.95 1.6 2.92 4.12 2.92 7.56v12.04h-7.08Zm-6.4.36c-1.73 0-3.2-.3-4.4-.88a6.6 6.6 0 0 1-2.76-2.4 6.44 6.44 0 0 1-.92-3.4c0-1.33.33-2.48 1-3.44a6.32 6.32 0 0 1 3.16-2.24c1.41-.53 3.24-.8 5.48-.8h5.12v3.96h-4.08c-1.23 0-2.1.2-2.6.6-.48.4-.72.93-.72 1.6s.25 1.2.76 1.6c.5.4 1.2.6 2.08.6.83 0 1.57-.2 2.24-.6.7-.43 1.2-1.07 1.52-1.92l1.04 2.8a5.65 5.65 0 0 1-2.36 3.4 8.24 8.24 0 0 1-4.56 1.12Zm18.05-.36v-21.68h7.56v8.04h7.8v-8.04h7.6v21.68h-7.6v-7.6h-7.8v7.6h-7.56Zm28.09 0v-21.68h7.56v11.36l9.08-11.36h7v21.68h-7.6v-11.4l-9 11.4h-7.04Zm28.75 0v-21.68h7.56v15.6h7.04v-15.6h7.6v21.68h-22.2Zm18.16 4.48v-4.52l1.68.04h-5.24v-6.08h10.6v10.56h-7.04Zm33.15-4.48v-21.68h7.57v21.68h-7.57Zm-10.43-14.96c2.88.03 5.02.67 6.43 1.92 1.45 1.25 2.16 3.04 2.16 5.36 0 2.4-.82 4.3-2.47 5.68-1.66 1.36-4.02 2.03-7.09 2h-11.44v-21.68h7.56v6.72h4.85Zm-1.73 9.76a3.2 3.2 0 0 0 2.13-.64c.5-.43.75-1.08.75-1.96 0-.9-.25-1.55-.75-1.92a3.59 3.59 0 0 0-2.13-.6h-3.12v5.08l3.13.04Zm36.51 5.2v-21.68h7.56v8.04h7.8v-8.04h7.6v21.68h-7.6v-7.6h-7.8v7.6h-7.56Zm39.25.36c-2.56 0-4.8-.48-6.72-1.44a11.35 11.35 0 0 1-4.44-4 10.92 10.92 0 0 1-1.56-5.8c0-2.16.5-4.08 1.52-5.76a10.57 10.57 0 0 1 4.28-3.96 12.88 12.88 0 0 1 6.12-1.44c2.13 0 4.08.44 5.84 1.32a9.96 9.96 0 0 1 4.2 3.8 11.4 11.4 0 0 1 1.56 6.12 56.34 56.34 0 0 1-.12 1.88h-17.16v-4h13.12l-2.88 1.12a4.9 4.9 0 0 0-.56-2.56 4.04 4.04 0 0 0-1.6-1.68 4.5 4.5 0 0 0-2.36-.6 4.08 4.08 0 0 0-3.96 2.32 5.5 5.5 0 0 0-.56 2.56v1.16c0 1.07.21 1.99.64 2.76a4.7 4.7 0 0 0 1.92 1.8c.83.4 1.81.6 2.96.6 1.06 0 1.97-.15 2.72-.44.77-.32 1.53-.8 2.28-1.44l4 4.16a10.3 10.3 0 0 1-3.84 2.64 14.9 14.9 0 0 1-5.4.88Zm37.34 0c-2.4 0-4.55-.48-6.44-1.44a11.1 11.1 0 0 1-4.4-3.96 10.79 10.79 0 0 1-1.6-5.84c0-2.19.53-4.12 1.6-5.8a10.82 10.82 0 0 1 4.4-3.92 14.03 14.03 0 0 1 6.44-1.44c2.45 0 4.57.52 6.36 1.56a8.64 8.64 0 0 1 3.8 4.4l-5.88 3a5.2 5.2 0 0 0-1.88-2.2 4.86 4.86 0 0 0-4.84-.12c-.72.4-1.3.99-1.72 1.76a5.8 5.8 0 0 0-.6 2.76c0 1.12.2 2.07.6 2.84.42.77 1 1.36 1.72 1.76a4.86 4.86 0 0 0 4.84-.08 5.5 5.5 0 0 0 1.88-2.24l5.88 3a8.64 8.64 0 0 1-3.8 4.4 12.43 12.43 0 0 1-6.36 1.56Zm16.94 7.76c-1.14 0-2.3-.19-3.48-.56a8.1 8.1 0 0 1-2.8-1.4l2.64-5.32c.46.4.98.7 1.56.92.62.24 1.22.36 1.8.36.83 0 1.48-.19 1.96-.56.48-.37.9-.96 1.24-1.76l1-2.52.6-.76 7.36-18.2h7.24l-9.36 22.56a13.68 13.68 0 0 1-2.6 4.36 7.92 7.92 0 0 1-3.24 2.24 11.4 11.4 0 0 1-3.92.64Zm2.96-7.2-9.56-22.6h7.8l7.04 17.52-5.28 5.08Zm33.71-7-1.64 1.72v-17.32h7.56v17.32l-1.72-1.72h9.2l-1.64 1.72v-17.32h7.52v21.68h-34.36v-21.68h7.56v17.32l-1.64-1.72h9.16Zm15.16 10.24v-5.84l1.68 1.68h-5.24v-6.08h10.6v10.24h-7.04Zm20.41-3.8c-2.56 0-4.8-.48-6.72-1.44a11.35 11.35 0 0 1-4.44-4 10.92 10.92 0 0 1-1.56-5.8c0-2.16.5-4.08 1.52-5.76a10.57 10.57 0 0 1 4.28-3.96 12.87 12.87 0 0 1 6.12-1.44c2.13 0 4.08.44 5.84 1.32a9.96 9.96 0 0 1 4.2 3.8 11.4 11.4 0 0 1 1.56 6.12 68.86 68.86 0 0 1-.12 1.88h-17.16v-4h13.12l-2.88 1.12a4.9 4.9 0 0 0-.56-2.56 4.05 4.05 0 0 0-1.6-1.68 4.5 4.5 0 0 0-2.36-.6 4.08 4.08 0 0 0-3.96 2.32 5.5 5.5 0 0 0-.56 2.56v1.16c0 1.07.22 1.99.64 2.76.46.77 1.1 1.37 1.92 1.8.83.4 1.82.6 2.96.6 1.07 0 1.98-.15 2.72-.44.77-.32 1.53-.8 2.28-1.44l4 4.16a10.3 10.3 0 0 1-3.84 2.64 14.9 14.9 0 0 1-5.4.88Zm25.7 0c-2.4 0-4.55-.48-6.44-1.44a11.12 11.12 0 0 1-4.4-3.96 10.8 10.8 0 0 1-1.6-5.84c0-2.19.53-4.12 1.6-5.8a10.83 10.83 0 0 1 4.4-3.92c1.9-.96 4.04-1.44 6.44-1.44 2.45 0 4.57.52 6.36 1.56a8.63 8.63 0 0 1 3.8 4.4l-5.88 3a5.18 5.18 0 0 0-1.88-2.2 4.86 4.86 0 0 0-4.84-.12c-.72.4-1.3.99-1.72 1.76a5.8 5.8 0 0 0-.6 2.76c0 1.12.2 2.07.6 2.84.43.77 1 1.36 1.72 1.76a4.86 4.86 0 0 0 4.84-.08 5.48 5.48 0 0 0 1.88-2.24l5.88 3a8.63 8.63 0 0 1-3.8 4.4 12.42 12.42 0 0 1-6.36 1.56Zm18.25-.36v-17.32l1.64 1.68h-8.63v-6.04h21.51v6.04h-8.63l1.67-1.68v17.32h-7.55Zm17.47 0v-21.68h11.64c2.8 0 4.99.5 6.56 1.48a4.6 4.6 0 0 1 2.36 4.16c0 1.73-.73 3.12-2.2 4.16-1.44 1.01-3.39 1.52-5.84 1.52l.68-1.6c2.64 0 4.63.5 5.96 1.48a4.86 4.86 0 0 1 2.04 4.24 5.4 5.4 0 0 1-2.24 4.56c-1.47 1.12-3.72 1.68-6.76 1.68h-12.2Zm6.8-4.92h4.72c.93 0 1.63-.16 2.08-.48.45-.35.68-.85.68-1.52 0-.7-.23-1.2-.68-1.52-.43-.32-1.1-.48-2-.48h-4.8v4Zm0-8.04h4.16c.9 0 1.57-.16 2-.48.43-.35.64-.84.64-1.48s-.21-1.1-.64-1.4c-.43-.32-1.1-.48-2-.48h-4.16v3.84Zm22.24 21.08c-1.15 0-2.3-.19-3.48-.56a8.1 8.1 0 0 1-2.8-1.4l2.64-5.32c.45.4.97.7 1.56.92a4.9 4.9 0 0 0 1.8.36c.83 0 1.48-.19 1.96-.56.48-.37.9-.96 1.24-1.76l1-2.52.6-.76 7.36-18.2h7.24l-9.36 22.56a13.66 13.66 0 0 1-2.6 4.36 7.92 7.92 0 0 1-3.24 2.24 11.4 11.4 0 0 1-3.92.64Zm2.96-7.2-9.56-22.6h7.8l7.04 17.52-5.28 5.08Zm29.2-.56c-2.56 0-4.8-.48-6.72-1.44a11.35 11.35 0 0 1-4.44-4 10.92 10.92 0 0 1-1.56-5.8c0-2.16.5-4.08 1.52-5.76a10.57 10.57 0 0 1 4.28-3.96 12.87 12.87 0 0 1 6.12-1.44c2.13 0 4.08.44 5.84 1.32a9.96 9.96 0 0 1 4.2 3.8 11.4 11.4 0 0 1 1.56 6.12 68.86 68.86 0 0 1-.12 1.88h-17.16v-4h13.12l-2.88 1.12a4.9 4.9 0 0 0-.56-2.56 4.05 4.05 0 0 0-1.6-1.68 4.5 4.5 0 0 0-2.36-.6c-.9 0-1.7.2-2.4.6-.67.4-1.19.97-1.56 1.72a5.5 5.5 0 0 0-.56 2.56v1.16c0 1.07.21 1.99.64 2.76a4.7 4.7 0 0 0 1.92 1.8c.83.4 1.81.6 2.96.6 1.07 0 1.97-.15 2.72-.44.77-.32 1.53-.8 2.28-1.44l4 4.16a10.3 10.3 0 0 1-3.84 2.64 14.9 14.9 0 0 1-5.4.88Zm18.95-.36v-17.32l1.64 1.68h-8.64v-6.04h21.52v6.04h-8.64l1.68-1.68v17.32h-7.56Zm-407.77-69.1c-3.58 0-6.89-.58-9.92-1.73a24.25 24.25 0 0 1-7.94-4.87 23.07 23.07 0 0 1-5.18-7.42 22.82 22.82 0 0 1-1.85-9.28c0-3.37.61-6.46 1.85-9.28a22.37 22.37 0 0 1 5.19-7.36 23.72 23.72 0 0 1 7.93-4.93 27.69 27.69 0 0 1 9.92-1.73c3.63 0 6.93.58 9.92 1.73a23.03 23.03 0 0 1 13.06 12.29 22.16 22.16 0 0 1 1.92 9.28 22.6 22.6 0 0 1-7.1 16.7 23.53 23.53 0 0 1-7.88 4.87 27.36 27.36 0 0 1-9.92 1.73Zm0-10.5c1.7 0 3.29-.3 4.74-.9 1.49-.6 2.77-1.45 3.84-2.56a11.9 11.9 0 0 0 2.56-4.1c.64-1.57.96-3.32.96-5.24 0-1.96-.32-3.71-.96-5.25a11.24 11.24 0 0 0-2.56-4.03 10.45 10.45 0 0 0-3.84-2.62c-1.45-.6-3.03-.9-4.74-.9-1.7 0-3.3.3-4.8.9a11.2 11.2 0 0 0-3.84 2.62 12.52 12.52 0 0 0-2.56 4.03 14.4 14.4 0 0 0-.9 5.25c0 1.92.3 3.67.9 5.25.64 1.58 1.5 2.94 2.56 4.1a11.67 11.67 0 0 0 3.84 2.55c1.5.6 3.1.9 4.8.9Zm31.67 9.6v-44.8h12.48v26.3l18.5-26.3h11.9v44.8h-12.48v-26.24l-18.43 26.24h-11.97Zm21.38-47.49c-4.65 0-8-.9-10.05-2.69-2.05-1.83-3.07-4.41-3.07-7.74h8.51c.04 1.5.43 2.6 1.15 3.33.73.72 1.88 1.09 3.46 1.09 1.62 0 2.8-.37 3.52-1.1.77-.72 1.17-1.83 1.22-3.32h8.5c0 3.33-1.04 5.9-3.13 7.74-2.09 1.8-5.46 2.7-10.11 2.7Zm31.12 31.17-2.37-28.48h14.47l-2.43 28.48h-9.67Zm4.87 16.9a7.23 7.23 0 0 1-5.25-1.99 6.36 6.36 0 0 1-2.05-4.73c0-1.88.68-3.44 2.05-4.68a7.36 7.36 0 0 1 5.25-1.92c2.13 0 3.86.64 5.18 1.92a6.04 6.04 0 0 1 2.05 4.68c0 1.83-.68 3.4-2.05 4.73a7.01 7.01 0 0 1-5.18 1.99Zm67.19-9.16v-8.25l20.1-27.97h13.11l-19.52 27.97-6.01-1.8h35v10.05h-42.68Zm23.68 8.58v-8.58l.38-10.04v-7.62h11.97v26.24h-12.35Zm41.35.9c-3.84 0-7.25-.92-10.24-2.76a18.97 18.97 0 0 1-6.97-7.93c-1.71-3.46-2.56-7.66-2.56-12.61 0-4.95.85-9.15 2.56-12.6 1.7-3.46 4.03-6.1 6.97-7.94a19.16 19.16 0 0 1 10.24-2.76c3.8 0 7.17.92 10.11 2.76a18.82 18.82 0 0 1 7.04 7.93c1.71 3.46 2.56 7.66 2.56 12.61 0 4.95-.85 9.15-2.56 12.6a18.82 18.82 0 0 1-7.04 7.94 18.72 18.72 0 0 1-10.1 2.76Zm0-10.37c1.37 0 2.56-.43 3.59-1.28 1.06-.85 1.9-2.22 2.5-4.1.59-1.92.89-4.44.89-7.55 0-3.16-.3-5.67-.9-7.55-.6-1.88-1.43-3.25-2.5-4.1a5.43 5.43 0 0 0-3.58-1.28c-1.36 0-2.58.43-3.65 1.28-1.02.86-1.85 2.22-2.5 4.1-.59 1.88-.89 4.4-.89 7.55 0 3.12.3 5.63.9 7.55.64 1.88 1.47 3.25 2.5 4.1a5.68 5.68 0 0 0 3.64 1.28Zm23.6.9v-8.26l20.09-27.97h13.12l-19.52 27.97-6.02-1.8h35v10.05h-42.68Zm23.67 8.57v-8.58l.38-10.04v-7.62h11.97v26.24h-12.35Z" fill="#fff"/></svg>