<svg viewBox="0 0 917 375" fill="none" xmlns="http://www.w3.org/2000/svg"><path d="M21 319.46h85.45l21.03 54.6h-13.64l-16.67-25.53h-66.85l-16.68 25.52h-13.64l21-54.5v-.09Zm294.09-107.65-9.5-25.5 9.5 6 7.5-10.5 11 4.5 12-9.5h561a10 10 0 0 1 10 10v173.19a10 10 0 0 1-10 10h-611a10 10 0 0 1-10-10v-126.19l8-11v-21.5l21.5 10.5Z" fill="#18A0FB" fill-opacity=".7"/><path d="M308.59 171.81h38l-13.5 10.5-24.5-10.5Zm-32.5 2h29l16 6.5-6.5 8-38.5-14.5Zm9.5 24.5 6 4v18l-6 7.5v-29.5Zm-23.5-18.5 6 4 4 10-20.5-11.5 10.5-2.5Zm47.49-26-4.5 5-7.5 4.5 4.32-20.4 7.68 10.9Zm-40.2 20.09-23-6 11.07-7.59 11.94 13.59Zm12.08 11.7-9-3 2.4-5.92 6.6 8.92Zm-33.4-11.6-7.9 5.26-3.2-5.54 11.1.28Zm62.32-8.23 8.41-4.4 2.6 5.84-11-1.44Zm-27.79 21.04h18l8.5 20-26.5-20Z" fill="#18A0FB" fill-opacity=".7"/><path d="m171.23 0 86 85.06v27.42l23.77 27.02-2.5 7.5 12.5 15v8.5l-7-3-11.5-15.5-7 2.5-32.7-42.12-53.27-47.97-111.7 58.17 14.89 106.42h-12.64l-18.35-98.37-8.66 7.54 27.01 90.83h-21.46l-36-91.99 158.61-137.01Zm75.1 99.28.54-11.53-73.63-71.59-6.95 9.6 80.04 73.51v.01Zm-77-44.07-15.17-13.65-66.89 58.16 82.05-44.51Z" fill="#18A0FB" fill-opacity=".7"/><path d="M35.46 216.26v29.22c0 17.96 12.66 32.52 28.28 32.52 15.62 0 28.28-14.56 28.28-32.53v-29.2l27.47 17.52v53.2l-26.87 18.88h-57.76l-26.87-18.88v-53.2l27.46-17.53Z" fill="#18A0FB" fill-opacity=".7"/><path d="M320.64 338.5v-43.36h23.28c5.6 0 9.97.99 13.12 2.96a9.2 9.2 0 0 1 4.72 8.32 9.71 9.71 0 0 1-4.4 8.32c-2.88 2.03-6.77 3.04-11.68 3.04l1.36-3.2c5.28 0 9.25.99 11.92 2.96 2.72 1.92 4.08 4.75 4.08 8.48 0 3.84-1.5 6.88-4.48 9.12-2.93 2.24-7.44 3.36-13.52 3.36h-24.4Zm13.6-9.84h9.44c1.87 0 3.25-.32 4.16-.96.9-.7 1.36-1.7 1.36-3.04 0-1.39-.45-2.4-1.36-3.04-.85-.64-2.19-.96-4-.96h-9.6v8Zm0-16.08h8.32c1.81 0 3.15-.32 4-.96a3.6 3.6 0 0 0 1.28-2.96c0-1.28-.43-2.21-1.28-2.8-.85-.64-2.19-.96-4-.96h-8.32v7.68Zm87.04 26.64c-3.68 0-6.83-.8-9.44-2.4a15.66 15.66 0 0 1-6-7.36c-1.33-3.3-2-7.52-2-12.64 0-5.17.64-9.39 1.92-12.64 1.28-3.3 3.2-5.76 5.76-7.36 2.61-1.6 5.87-2.4 9.76-2.4 3.95 0 7.52.93 10.72 2.8a19.55 19.55 0 0 1 7.68 7.76c1.92 3.3 2.88 7.25 2.88 11.84s-.96 8.56-2.88 11.92a19.55 19.55 0 0 1-7.68 7.76 21.36 21.36 0 0 1-10.72 2.72Zm-27.28 14.8v-58.88h14.48v7.36l-.08 14.32.8 14.4v22.8h-15.2Zm24.08-26.88c1.7 0 3.23-.4 4.56-1.2a8.4 8.4 0 0 0 3.28-3.52 11.44 11.44 0 0 0 1.28-5.6c0-2.19-.43-4.05-1.28-5.6a8.4 8.4 0 0 0-3.28-3.52 8.7 8.7 0 0 0-4.56-1.2c-1.7 0-3.25.4-4.64 1.2a9.11 9.11 0 0 0-3.28 3.52c-.8 1.55-1.2 3.41-1.2 5.6 0 2.19.4 4.05 1.2 5.6a9.11 9.11 0 0 0 3.28 3.52c1.38.8 2.93 1.2 4.64 1.2Zm56.52 11.36v-8.08l-1.04-2v-14.88c0-2.4-.75-4.24-2.24-5.52-1.44-1.33-3.76-2-6.96-2-2.08 0-4.19.35-6.32 1.04a16.27 16.27 0 0 0-5.44 2.72l-5.12-10.32a28.75 28.75 0 0 1 8.8-3.68c3.47-.9 6.9-1.36 10.32-1.36 7.04 0 12.48 1.63 16.32 4.88 3.9 3.2 5.84 8.24 5.84 15.12v24.08h-14.16Zm-12.8.72c-3.47 0-6.4-.59-8.8-1.76a13.18 13.18 0 0 1-5.52-4.8 12.87 12.87 0 0 1-1.84-6.8c0-2.67.67-4.96 2-6.88 1.39-1.97 3.5-3.47 6.32-4.48 2.83-1.07 6.48-1.6 10.96-1.6h10.24v7.92h-8.16c-2.45 0-4.19.4-5.2 1.2a3.96 3.96 0 0 0-1.44 3.2c0 1.33.5 2.4 1.52 3.2 1.01.8 2.4 1.2 4.16 1.2 1.65 0 3.15-.4 4.48-1.2a7.37 7.37 0 0 0 3.04-3.84l2.08 5.6a11.3 11.3 0 0 1-4.72 6.8c-2.3 1.5-5.33 2.24-9.12 2.24Zm51.7.16c-3.35 0-6.71-.3-10.07-.88a47.63 47.63 0 0 1-9.6-2.88l3.92-10.24c2.35.96 4.8 1.68 7.36 2.16 2.56.48 5.17.72 7.84.72 1.6 0 2.98-.13 4.16-.4a6.5 6.5 0 0 0 2.72-1.36 2.96 2.96 0 0 0 1.04-2.24c0-1.17-.43-2.03-1.28-2.56-.86-.53-2.16-.8-3.92-.8h-9.36v-8.88h8c1.17 0 2.16-.1 2.96-.32a3.6 3.6 0 0 0 1.76-1.12c.43-.53.64-1.15.64-1.84 0-.7-.27-1.28-.8-1.76a4.54 4.54 0 0 0-2.32-1.2 13.64 13.64 0 0 0-4-.48c-2.13 0-4.37.27-6.72.8-2.3.48-4.67 1.17-7.12 2.08l-3.52-10a58.12 58.12 0 0 1 8.8-2.8c2.99-.7 5.92-1.07 8.8-1.12 4.16-.1 7.9.32 11.2 1.28 3.36.9 6.02 2.3 8 4.16a8.94 8.94 0 0 1 2.96 6.88c0 2.13-.64 4.03-1.92 5.68a13.72 13.72 0 0 1-5.2 4 18.13 18.13 0 0 1-7.36 1.44l.32-2.8c4.75 0 8.48.96 11.2 2.88a8.79 8.79 0 0 1 4.16 7.68c0 2.99-1.01 5.52-3.04 7.6-2.03 2.08-4.75 3.65-8.16 4.72a38.25 38.25 0 0 1-11.44 1.6Zm57.31-.16c-3.68 0-6.83-.8-9.44-2.4a15.67 15.67 0 0 1-6-7.36c-1.33-3.3-2-7.52-2-12.64 0-5.17.64-9.39 1.92-12.64 1.28-3.3 3.2-5.76 5.76-7.36 2.61-1.6 5.87-2.4 9.76-2.4 3.95 0 7.52.93 10.72 2.8a19.55 19.55 0 0 1 7.68 7.76c1.92 3.3 2.88 7.25 2.88 11.84s-.96 8.56-2.88 11.92a19.55 19.55 0 0 1-7.68 7.76 21.36 21.36 0 0 1-10.72 2.72Zm-27.28 14.8v-58.88h14.48v7.36l-.08 14.32.8 14.4v22.8h-15.2Zm24.08-26.88c1.7 0 3.23-.4 4.56-1.2a8.4 8.4 0 0 0 3.28-3.52 11.44 11.44 0 0 0 1.28-5.6c0-2.19-.43-4.05-1.28-5.6a8.4 8.4 0 0 0-3.28-3.52 8.69 8.69 0 0 0-4.56-1.2c-1.7 0-3.25.4-4.64 1.2a9.12 9.12 0 0 0-3.28 3.52c-.8 1.55-1.2 3.41-1.2 5.6 0 2.19.4 4.05 1.2 5.6a9.12 9.12 0 0 0 3.28 3.52c1.39.8 2.93 1.2 4.64 1.2Zm56.52 11.36v-8.08l-1.04-2v-14.88c0-2.4-.75-4.24-2.24-5.52-1.44-1.33-3.76-2-6.96-2-2.08 0-4.18.35-6.32 1.04a16.28 16.28 0 0 0-5.44 2.72l-5.12-10.32a28.76 28.76 0 0 1 8.8-3.68c3.47-.9 6.9-1.36 10.32-1.36 7.04 0 12.48 1.63 16.32 4.88 3.9 3.2 5.84 8.24 5.84 15.12v24.08h-14.16Zm-12.8.72c-3.47 0-6.4-.59-8.8-1.76a13.18 13.18 0 0 1-5.52-4.8 12.87 12.87 0 0 1-1.84-6.8c0-2.67.67-4.96 2-6.88 1.39-1.97 3.5-3.47 6.32-4.48 2.83-1.07 6.48-1.6 10.96-1.6h10.24v7.92h-8.16c-2.45 0-4.18.4-5.2 1.2a3.96 3.96 0 0 0-1.44 3.2c0 1.33.5 2.4 1.52 3.2 1.01.8 2.4 1.2 4.16 1.2 1.65 0 3.15-.4 4.48-1.2a7.37 7.37 0 0 0 3.04-3.84l2.08 5.6a11.3 11.3 0 0 1-4.72 6.8c-2.3 1.5-5.33 2.24-9.12 2.24Zm58.67.4c-3.52 0-6.8-.5-9.84-1.52a20.51 20.51 0 0 1-7.84-4.8 23.02 23.02 0 0 1-5.2-8.56c-1.23-3.52-1.84-7.79-1.84-12.8 0-3.36.29-6.45.88-9.28a31.69 31.69 0 0 1 2.64-7.76c1.22-2.4 2.77-4.5 4.64-6.32a26.19 26.19 0 0 1 6.72-4.56 36.27 36.27 0 0 1 8.8-2.8l21.04-4 2.08 12.72-18.24 3.44c-1.12.21-2.35.48-3.68.8-1.28.32-2.54.8-3.76 1.44a12.51 12.51 0 0 0-3.44 2.48 12.05 12.05 0 0 0-2.48 4.24 19.8 19.8 0 0 0-.88 6.4c0 .75.02 1.36.08 1.84.1.43.18.93.24 1.52.05.53.08 1.36.08 2.48l-4.24-3.92a22.02 22.02 0 0 1 4.56-5.68 20.11 20.11 0 0 1 6.24-3.6 22.82 22.82 0 0 1 7.84-1.28c4.21 0 7.84.83 10.88 2.48a16.6 16.6 0 0 1 6.96 6.72 18.8 18.8 0 0 1 2.48 9.68c0 4.27-1.07 7.95-3.2 11.04a21.27 21.27 0 0 1-8.8 7.12 30.76 30.76 0 0 1-12.72 2.48Zm.4-11.52c1.76 0 3.28-.37 4.56-1.12a7.97 7.97 0 0 0 3.12-3.12 9 9 0 0 0 1.12-4.48 8.3 8.3 0 0 0-1.12-4.4 7.74 7.74 0 0 0-3.12-2.88 9.44 9.44 0 0 0-4.56-1.04c-1.76 0-3.34.35-4.72 1.04a7.96 7.96 0 0 0-3.12 2.8 7.74 7.74 0 0 0-1.12 4.24c0 1.65.37 3.17 1.12 4.56a8.4 8.4 0 0 0 3.12 3.28 9.8 9.8 0 0 0 4.72 1.12Zm52.7 11.12c-4.75 0-8.97-.96-12.65-2.88a22.35 22.35 0 0 1-8.72-7.92 22 22 0 0 1-3.12-11.68 21.6 21.6 0 0 1 3.12-11.6 21.77 21.77 0 0 1 8.72-7.84 26.93 26.93 0 0 1 12.64-2.88c4.75 0 8.96.96 12.64 2.88a21.1 21.1 0 0 1 8.72 7.84 21.58 21.58 0 0 1 3.12 11.6 22 22 0 0 1-3.12 11.68 21.6 21.6 0 0 1-8.72 7.92 26.93 26.93 0 0 1-12.64 2.88Zm0-12.08c1.75 0 3.3-.4 4.63-1.2a8.4 8.4 0 0 0 3.28-3.52c.8-1.6 1.2-3.5 1.2-5.68 0-2.19-.4-4.03-1.2-5.52a8.4 8.4 0 0 0-3.28-3.52 8.84 8.84 0 0 0-4.64-1.2c-1.7 0-3.25.4-4.64 1.2a9.12 9.12 0 0 0-3.28 3.52c-.8 1.5-1.2 3.33-1.2 5.52 0 2.19.4 4.08 1.2 5.68a9.12 9.12 0 0 0 3.28 3.52c1.39.8 2.94 1.2 4.64 1.2Zm39.72 11.36v-34.64l3.28 3.36h-17.28v-12.08h43.04v12.08h-17.28l3.36-3.36v34.64h-15.12Zm65.33 0-13.2-20.24 12.24-7.2 18.88 27.44h-17.92Zm-30.4 0v-43.36h15.2v43.36h-15.2Zm10.72-15.44v-11.92h15.68v11.92h-15.68Zm20.24-4.56-14.24-1.44 14.56-21.92h16.08l-16.4 23.36Zm43.47 20.72c-5.12 0-9.6-.96-13.44-2.88a22.67 22.67 0 0 1-8.88-8 21.84 21.84 0 0 1-3.12-11.6c0-4.32 1.01-8.16 3.04-11.52a21.15 21.15 0 0 1 8.56-7.92 25.75 25.75 0 0 1 12.24-2.88c4.26 0 8.16.88 11.68 2.64a19.93 19.93 0 0 1 8.4 7.6c2.08 3.36 3.12 7.44 3.12 12.24 0 .53-.03 1.15-.08 1.84-.06.7-.1 1.33-.16 1.92h-34.32v-8h26.24l-5.76 2.24a9.82 9.82 0 0 0-1.12-5.12 8.1 8.1 0 0 0-3.2-3.36 9 9 0 0 0-4.72-1.2c-1.81 0-3.41.4-4.8 1.2a8.16 8.16 0 0 0-3.12 3.44 10.98 10.98 0 0 0-1.12 5.12v2.32c0 2.13.42 3.97 1.28 5.52a9.27 9.27 0 0 0 3.84 3.6c1.65.8 3.63 1.2 5.92 1.2 2.13 0 3.95-.3 5.44-.88 1.54-.64 3.06-1.6 4.56-2.88l8 8.32a20.62 20.62 0 0 1-7.68 5.28 29.97 29.97 0 0 1-10.8 1.76Zm-450.63-77.6c-4.43 0-8.54-.7-12.32-2.08a29.59 29.59 0 0 1-9.76-6.08 28.53 28.53 0 0 1-6.4-9.2 29.28 29.28 0 0 1-2.32-11.76 28.72 28.72 0 0 1 8.72-20.96 28.56 28.56 0 0 1 9.76-6 34.37 34.37 0 0 1 12.32-2.16c5.17 0 9.78.9 13.84 2.72a26.63 26.63 0 0 1 10.24 7.84l-10.08 9.12a19.7 19.7 0 0 0-6-4.88 15.26 15.26 0 0 0-7.2-1.68c-2.3 0-4.4.37-6.32 1.12a13.67 13.67 0 0 0-4.96 3.28 15.66 15.66 0 0 0-3.2 5.04 18.4 18.4 0 0 0-1.12 6.56c0 2.4.37 4.59 1.12 6.56.8 1.97 1.86 3.68 3.2 5.12a14.2 14.2 0 0 0 4.96 3.2 17.2 17.2 0 0 0 6.32 1.12c2.66 0 5.06-.56 7.2-1.68a19.7 19.7 0 0 0 6-4.88l10.08 9.12a27.71 27.71 0 0 1-10.24 7.84 33.57 33.57 0 0 1-13.84 2.72Zm38.86-1.12v-34.64l3.28 3.36h-17.28v-12.08h43.04v12.08h-17.28l3.36-3.36v34.64h-15.12Zm62.2.72c-3.67 0-6.82-.8-9.43-2.4a15.66 15.66 0 0 1-6-7.36c-1.33-3.3-2-7.52-2-12.64 0-5.17.64-9.39 1.92-12.64 1.28-3.3 3.2-5.76 5.76-7.36 2.61-1.6 5.87-2.4 9.76-2.4 3.95 0 7.52.93 10.72 2.8a19.55 19.55 0 0 1 7.68 7.76c1.92 3.3 2.88 7.25 2.88 11.84s-.96 8.56-2.88 11.92a19.55 19.55 0 0 1-7.68 7.76 21.36 21.36 0 0 1-10.72 2.72Zm-27.27 14.8v-58.88h14.48v7.36l-.08 14.32.8 14.4v22.8h-15.2Zm24.08-26.88c1.7 0 3.23-.4 4.56-1.2a8.4 8.4 0 0 0 3.28-3.52 11.44 11.44 0 0 0 1.28-5.6c0-2.19-.43-4.05-1.28-5.6a8.4 8.4 0 0 0-3.28-3.52 8.7 8.7 0 0 0-4.56-1.2c-1.7 0-3.25.4-4.64 1.2a9.11 9.11 0 0 0-3.28 3.52c-.8 1.55-1.2 3.41-1.2 5.6 0 2.19.4 4.05 1.2 5.6a9.11 9.11 0 0 0 3.28 3.52c1.38.8 2.93 1.2 4.64 1.2Zm56.52 11.36v-8.08l-1.04-2v-14.88c0-2.4-.75-4.24-2.24-5.52-1.44-1.33-3.76-2-6.96-2-2.08 0-4.19.35-6.32 1.04a16.27 16.27 0 0 0-5.44 2.72l-5.12-10.32a28.75 28.75 0 0 1 8.8-3.68c3.47-.9 6.9-1.36 10.32-1.36 7.04 0 12.48 1.63 16.32 4.88 3.9 3.2 5.84 8.24 5.84 15.12v24.08h-14.16Zm-12.8.72c-3.47 0-6.4-.59-8.8-1.76a13.18 13.18 0 0 1-5.52-4.8 12.87 12.87 0 0 1-1.84-6.8c0-2.67.67-4.96 2-6.88 1.39-1.97 3.5-3.47 6.32-4.48 2.83-1.07 6.48-1.6 10.96-1.6h10.24v7.92h-8.16c-2.45 0-4.19.4-5.2 1.2a3.96 3.96 0 0 0-1.44 3.2c0 1.33.5 2.4 1.52 3.2 1.01.8 2.4 1.2 4.16 1.2 1.65 0 3.15-.4 4.48-1.2a7.37 7.37 0 0 0 3.04-3.84l2.08 5.6a11.3 11.3 0 0 1-4.72 6.8c-2.3 1.5-5.33 2.24-9.12 2.24Zm36.1-.72v-43.36h15.13v16.08h15.6v-16.08h15.2v43.36h-15.2v-15.2h-15.6v15.2h-15.13Zm56.18 0v-43.36h15.12v22.72l18.16-22.72h14v43.36h-15.2v-22.8l-18 22.8h-14.08Zm57.5 0v-43.36h15.12v31.2h14.08v-31.2h15.2v43.36h-44.4Zm36.32 8.96v-9.04l3.36.08h-10.48v-12.16h21.2v21.12h-14.08Zm46.31-8.96v-8.08l-1.04-2v-14.88c0-2.4-.75-4.24-2.24-5.52-1.44-1.33-3.76-2-6.96-2-2.08 0-4.19.35-6.32 1.04a16.28 16.28 0 0 0-5.44 2.72l-5.12-10.32a28.76 28.76 0 0 1 8.8-3.68c3.47-.9 6.9-1.36 10.32-1.36 7.04 0 12.48 1.63 16.32 4.88 3.9 3.2 5.84 8.24 5.84 15.12v24.08h-14.16Zm-12.8.72c-3.47 0-6.4-.59-8.8-1.76a13.18 13.18 0 0 1-5.52-4.8 12.87 12.87 0 0 1-1.84-6.8c0-2.67.67-4.96 2-6.88 1.39-1.97 3.5-3.47 6.32-4.48 2.83-1.07 6.48-1.6 10.96-1.6h10.24v7.92h-8.16c-2.45 0-4.19.4-5.2 1.2a3.96 3.96 0 0 0-1.44 3.2c0 1.33.5 2.4 1.52 3.2 1.01.8 2.4 1.2 4.16 1.2 1.65 0 3.15-.4 4.48-1.2a7.37 7.37 0 0 0 3.04-3.84l2.08 5.6a11.3 11.3 0 0 1-4.72 6.8c-2.3 1.5-5.33 2.24-9.12 2.24Z" fill="#fff"/></svg>