<svg width="390" height="602" viewBox="0 0 390 602" fill="none" xmlns="http://www.w3.org/2000/svg">
<path d="M14.472 11.976C14.872 12.136 15.072 12.456 15.072 12.936C15.072 13.256 14.992 13.56 14.832 13.848C13.872 15.56 12.328 17.712 10.2 20.304C10.216 20.368 10.24 20.44 10.272 20.52C10.304 20.6 10.336 20.68 10.368 20.76C10.4 20.84 10.424 20.912 10.44 20.976C11.032 22.4 11.592 23.544 12.12 24.408C12.264 24.648 12.512 24.984 12.864 25.416C13.216 25.848 13.496 26.256 13.704 26.64C13.928 27.008 14.064 27.392 14.112 27.792C14.128 27.856 14.136 27.928 14.136 28.008C14.136 28.376 14.024 28.736 13.8 29.088C13.576 29.424 13.288 29.68 12.936 29.856C12.728 29.968 12.496 30.024 12.24 30.024C11.664 30.024 11.344 29.776 11.28 29.28C11.264 29.104 11.216 28.944 11.136 28.8C11.056 28.64 10.904 28.44 10.68 28.2C10.472 27.944 10.368 27.808 10.368 27.792C10 27.312 9.664 26.824 9.36 26.328C8.88 25.48 8.376 24.424 7.848 23.16C5.832 25.688 4.464 27.936 3.744 29.904C3.584 30.304 3.336 30.656 3 30.96C2.68 31.264 2.32 31.416 1.92 31.416C1.92 31.416 1.912 31.416 1.896 31.416C1.608 31.416 1.376 31.312 1.2 31.104C1.04 30.896 0.96 30.648 0.96 30.36C0.96 30.2 0.984 30.048 1.032 29.904C1.624 28.32 2.384 26.824 3.312 25.416C4.256 24.008 5.448 22.424 6.888 20.664C6.616 19.976 6.232 19 5.736 17.736C5.256 16.456 4.912 15.552 4.704 15.024C4.64 14.848 4.608 14.656 4.608 14.448C4.608 13.856 4.88 13.336 5.424 12.888C5.776 12.6 6.168 12.456 6.6 12.456C6.968 12.456 7.208 12.608 7.32 12.912C8.152 15.088 8.776 16.72 9.192 17.808C10.6 16.032 11.696 14.448 12.48 13.056C12.64 12.768 12.872 12.512 13.176 12.288C13.48 12.048 13.792 11.928 14.112 11.928C14.24 11.928 14.36 11.944 14.472 11.976Z" fill="#E5E5E5"/>
<path d="M283.824 597.256C283.968 597.224 284.152 597.184 284.376 597.136C284.792 595.888 285.232 594.584 285.696 593.224C284.864 592.824 284.288 592.264 283.968 591.544C283.664 590.808 283.512 589.936 283.512 588.928C283.512 588.48 283.544 587.84 283.608 587.008C283.688 586.176 283.736 585.64 283.752 585.4C283.608 584.968 283.536 584.56 283.536 584.176C283.536 583.248 283.92 582.592 284.688 582.208C284.896 582.16 285.088 582.136 285.264 582.136C285.776 582.136 286.128 582.312 286.32 582.664C286.528 583 286.632 583.488 286.632 584.128C286.632 584.512 286.584 585.152 286.488 586.048C286.392 586.944 286.344 587.592 286.344 587.992C286.344 588.888 286.512 589.52 286.848 589.888C287.136 589.376 287.416 588.656 287.688 587.728C287.976 586.784 288.216 585.944 288.408 585.208C288.6 584.472 288.928 583.768 289.392 583.096C289.856 582.408 290.44 581.944 291.144 581.704C291.432 581.704 291.656 581.808 291.816 582.016C291.992 582.224 292.08 582.472 292.08 582.76C292.08 582.92 292.048 583.08 291.984 583.24C290.032 588.376 288.256 593.44 286.656 598.432C286.544 598.768 286.344 599.08 286.056 599.368C285.784 599.656 285.488 599.832 285.168 599.896C284.256 600.184 283.504 600.328 282.912 600.328C281.696 600.328 281.056 599.768 280.992 598.648C280.272 598.424 279.912 598.064 279.912 597.568C279.912 597.088 280.176 596.624 280.704 596.176C281.232 595.744 281.776 595.528 282.336 595.528C282.72 595.528 283.048 595.664 283.32 595.936C283.592 596.224 283.76 596.664 283.824 597.256Z" fill="#E5E5E5"/>
<path d="M34 0L31.1132 5H36.8868L34 0ZM34.5 597V4.5H33.5V597H34.5Z" fill="white"/>
<path d="M6.5 573.5L390 575" stroke="white"/>
</svg>
