<svg width="45" height="46" viewBox="0 0 45 46" fill="none" xmlns="http://www.w3.org/2000/svg">
<path d="M0.958398 22.9504C0.957344 26.7438 1.95297 30.4478 3.84613 33.7126L0.777344 44.8672L12.2439 41.8741C15.4154 43.5929 18.9688 44.4935 22.5798 44.4938H22.5893C34.5099 44.4938 44.2136 34.8369 44.2187 22.9674C44.221 17.2157 41.9731 11.8073 37.889 7.73825C33.8056 3.66956 28.3748 1.42767 22.5885 1.42505C10.6664 1.42505 0.963496 11.0814 0.958574 22.9504" fill="url(#paint0_linear_4950_47)"/>
<path d="M0.188086 22.9434C0.186855 26.8733 1.21816 30.7097 3.17883 34.0914L0 45.6459L11.8777 42.5455C15.1504 44.3219 18.8351 45.2585 22.5846 45.2599H22.5942C34.9425 45.2599 44.9947 35.2557 45 22.9612C45.0021 17.0029 42.6734 11.4 38.4434 7.18523C34.2128 2.97095 28.5878 0.648385 22.5942 0.645935C10.2438 0.645935 0.193008 10.6488 0.188086 22.9434ZM7.2617 33.509L6.8182 32.8081C4.95387 29.857 3.96984 26.4466 3.97125 22.9448C3.97512 12.7258 12.3289 4.41187 22.6013 4.41187C27.5759 4.41397 32.2509 6.34454 35.7673 9.84729C39.2834 13.3504 41.2182 18.0071 41.217 22.9598C41.2124 33.1788 32.8584 41.4938 22.5942 41.4938H22.5868C19.2447 41.492 15.9669 40.5985 13.1084 38.9099L12.4281 38.5083L5.37961 40.3481L7.2617 33.509Z" fill="url(#paint1_linear_4950_47)"/>
<path d="M16.9959 13.6217C16.5765 12.6937 16.1351 12.6749 15.7363 12.6587C15.4096 12.6447 15.0363 12.6457 14.6633 12.6457C14.2899 12.6457 13.6833 12.7855 13.1705 13.3429C12.6573 13.9008 11.2109 15.249 11.2109 17.991C11.2109 20.733 13.2171 23.3832 13.4968 23.7554C13.7768 24.1269 17.3698 29.934 23.0602 32.168C27.7894 34.0246 28.7518 33.6553 29.7782 33.5622C30.8047 33.4695 33.0906 32.2144 33.557 30.913C34.0237 29.6117 34.0237 28.4963 33.8837 28.2632C33.7438 28.0309 33.3704 27.8915 32.8106 27.6129C32.2507 27.3343 29.4982 25.9857 28.9851 25.7997C28.4718 25.6139 28.0986 25.5211 27.7252 26.0792C27.3519 26.6364 26.2798 27.8915 25.953 28.2632C25.6266 28.6357 25.2998 28.6821 24.7401 28.4033C24.1799 28.1237 22.3769 27.5359 20.2378 25.6373C18.5735 24.16 17.4499 22.3357 17.1233 21.7776C16.7967 21.2204 17.0884 20.9184 17.3691 20.6406C17.6206 20.3909 17.9291 19.9898 18.2093 19.6645C18.4885 19.339 18.5816 19.1068 18.7683 18.7351C18.9552 18.363 18.8616 18.0375 18.7219 17.7588C18.5816 17.48 17.4937 14.7236 16.9959 13.6217Z" fill="white"/>
<defs>
<linearGradient id="paint0_linear_4950_47" x1="2172.85" y1="4345.64" x2="2172.85" y2="1.42505" gradientUnits="userSpaceOnUse">
<stop stop-color="#1FAF38"/>
<stop offset="1" stop-color="#60D669"/>
</linearGradient>
<linearGradient id="paint1_linear_4950_47" x1="2250" y1="4500.65" x2="2250" y2="0.645935" gradientUnits="userSpaceOnUse">
<stop stop-color="#F9F9F9"/>
<stop offset="1" stop-color="white"/>
</linearGradient>
</defs>
</svg>
